<?xml version="1.0" encoding="UTF-8"?>
<!DOCTYPE svg PUBLIC "-//W3C//DTD SVG 1.1//EN" "http://www.w3.org/Graphics/SVG/1.1/DTD/svg11.dtd">
<!-- Creator: CorelDRAW 2021.5 -->
<svg xmlns="http://www.w3.org/2000/svg" xml:space="preserve" width="19.4808cm" height="29.2364cm" version="1.1" style="shape-rendering:geometricPrecision; text-rendering:geometricPrecision; image-rendering:optimizeQuality; fill-rule:evenodd; clip-rule:evenodd"
viewBox="0 0 19106.53 28674.69"
 xmlns:xlink="http://www.w3.org/1999/xlink"
 xmlns:xodm="http://www.corel.com/coreldraw/odm/2003">
 <defs>
  <style type="text/css">
   <![CDATA[
    .str1 {stroke:black;stroke-width:25.42;stroke-miterlimit:22.9256}
    .str0 {stroke:black;stroke-width:7.32;stroke-miterlimit:22.9256}
    .fil4 {fill:none}
    .fil6 {fill:none;fill-rule:nonzero}
    .fil7 {fill:#00A859}
    .fil0 {fill:#201E1E}
    .fil3 {fill:#D49567}
    .fil1 {fill:#FFF212}
    .fil2 {fill:#201E1E;fill-rule:nonzero}
    .fil5 {fill:#373435;fill-rule:nonzero}
    .fil8 {fill:#FFF212;fill-rule:nonzero}
   ]]>
  </style>
 </defs>
 <g id="Layer_x0020_1">
  <metadata id="CorelCorpID_0Corel-Layer"/>
  <g id="_1663320946048">
   <path class="fil0" d="M9553.26 0l9553.27 3974.67 0 15783.62c0,5254.11 -4298.97,8916.4 -9553.27,8916.4 -4968.61,0 -9553.26,-3524.95 -9553.26,-8916.4l0 -15783.62 9553.26 -3974.67z"/>
   <path class="fil1" d="M9553.26 416.56l-9168.64 3814.68 0 15527.05c0,5070.5 4292.11,8531.79 9168.64,8531.79 4943.68,0 9168.64,-3404.65 9168.64,-8531.79l0 -15527.05 -9168.64 -3814.68z"/>
   <path class="fil2" d="M4058.56 23261.36l-781.54 142.78 -564.67 765.65 -300.63 -462.93 465.23 -561.36 -583.64 379.01 -292.12 -449.8 1361.84 -884.38 292.1 449.8 -529.11 343.62 660.28 -141.62 272.26 419.22zm681 700.31l-931.59 1364.83 -386.92 -386.93 185.57 -226.69 -136.55 -136.54 -226.69 185.57 -391.82 -391.83 1340.28 -956.11 547.73 547.71zm-939.86 537.86c112.05,-148.26 254.16,-328.4 426.25,-541 -258.07,183.21 -442.83,320.72 -554.79,412.45l128.55 128.55zm1979.49 238.7l-903.1 640.48 -328.68 487.32 -410.13 -276.63 328.7 -487.32 266.34 -1069.99 407.59 274.94c-114.76,305.98 -197.83,507.46 -250.06,604.3 122.36,-126.3 282.76,-275.63 482.11,-447.78l407.23 274.69zm1123.65 545l-441.55 991.77c-50.11,112.53 -90.07,189.47 -119.37,230.75 -29.83,41.39 -78.06,76.09 -144.95,103.63 -67.01,27.83 -143.4,37.26 -228.93,28.78 -85.91,-8.68 -179.5,-35.36 -280.96,-80.54 -112.22,-49.94 -204.77,-108.77 -277.3,-176.27 -72.94,-67.67 -120.2,-134.41 -141.74,-200.18 -21.8,-66.26 -24.64,-127.07 -9.32,-182.8 15.71,-55.55 60.73,-167.32 135.17,-334.56l391.05 -878.29 489.96 218.15 -495.4 1112.72c-28.81,64.69 -42.96,108.21 -42.17,129.91 0.66,22.02 14.46,39.02 41.03,50.84 30.13,13.42 54.4,12.25 71.88,-3.56 17.63,-16.14 42.86,-61.07 75.71,-134.85l486.92 -1093.64 489.98 218.15zm1290.73 361.71l-365.26 1582.18 -522.6 -120.65 153.31 -664.08 -152.22 -35.15 -153.33 664.09 -522.59 -120.65 365.3 -1582.19 522.59 120.66 -130.7 566.07 152.22 35.13 130.68 -566.06 522.6 120.66zm543.81 109.54l532.88 0c168.35,0 295.93,10.26 382.72,31.14 86.78,20.52 156.65,62.61 210.03,125.58 53.37,63.29 79.84,164.91 79.84,305.18 0,94.78 -18.67,160.82 -56.42,198.11 -37.76,37.62 -112.38,66.03 -223.47,86.21 124.11,22.24 208.3,58.85 252.55,109.82 44.25,51.32 66.4,129.67 66.4,235.75l0 150.54c0,109.82 -16.05,190.91 -47.73,243.92 -31.68,52.7 -82.01,88.97 -151.45,108.48 -69.43,19.5 -211.76,29.07 -426.99,29.07l-618.36 0 0 -1623.81zm536.34 277.14l0 361.3c22.56,-0.68 39.91,-1.03 52.5,-1.03 51.21,0 84.18,-10.25 98.07,-30.44 14.32,-20.53 21.28,-79.04 21.28,-175.18 0,-50.98 -5.66,-86.56 -17.36,-107.09 -11.72,-20.18 -26.91,-33.19 -45.56,-38.66 -18.68,-5.13 -55.1,-8.21 -108.93,-8.9zm0 613.8l0 455.75c73.77,-2.07 121.07,-11.31 141.47,-28.08 20.38,-16.75 30.38,-58.15 30.38,-123.85l0 -151.92c0,-69.79 -9.12,-111.87 -27.34,-126.92 -18.22,-14.71 -66.41,-22.92 -144.51,-24.99zm1814.38 -998.02l529.37 1565.36 -541.88 76.16 -69.36 -284.63 -191.22 26.88 11.77 292.72 -548.75 77.12 43.02 -1645.81 767.03 -107.8zm-136.04 1074.28c-50.98,-178.71 -109.32,-400.61 -175.53,-665.99 -9,316.38 -10.39,546.67 -4.51,691.31l180.04 -25.31zm1063.8 -1324.64l420.27 1568.47 -518.06 138.82 -420.29 -1568.48 518.08 -138.81zm1616.31 -700.25l711.83 1459.47 -421.21 205.44 -481.73 -984.7 313.22 1066.88 -294.85 143.82 -646.43 -876.97 468.58 963.71 -421.22 205.46 -711.82 -1459.45 622.07 -303.42c60.6,79.7 130.41,174.31 208.97,282.94l248.99 337.25 -222.79 -734.9 626.38 -305.51zm97.55 -116.54l425.59 -320.71c134.47,-101.31 242.51,-169.91 324.41,-205.46 81.64,-35.83 162.78,-44.26 243.29,-26.11 80.73,18.42 163.01,83.65 247.43,195.67 57.03,75.69 81.87,139.67 74.17,192.18 -7.51,52.77 -50.02,120.37 -126.58,203.35 112.47,-56.94 201.75,-78.37 267.77,-64.29 66.24,14.35 131.07,63.62 194.91,148.3l90.59 120.23c66.08,87.71 102.07,162.12 108.69,223.55 6.4,61.14 -11.97,120.4 -55.69,177.77 -43.7,57.35 -151.61,150.67 -323.52,280.2l-493.84 372.13 -977.25 -1296.82zm595.15 -101.45l217.44 288.54c17.6,-14.14 31.24,-24.84 41.3,-32.42 40.9,-30.82 61.05,-58.86 60.02,-83.35 -0.95,-25.01 -30.61,-75.92 -88.46,-152.71 -30.69,-40.72 -56.6,-65.73 -78.31,-75.07 -21.5,-9.06 -41.46,-10.32 -59.64,-3.45 -18.02,7.13 -48.97,26.61 -92.35,58.45zm369.39 490.19l274.27 363.97c57.66,-46.03 89.89,-81.88 96.08,-107.56 6.22,-25.66 -10.72,-64.72 -50.27,-117.2l-91.42 -121.33c-42,-55.74 -74.59,-83.85 -98.22,-84.92 -23.42,-0.77 -66.81,21.66 -130.45,67.02zm580.78 -1886.47l1468.18 758.29 -336.88 431.21 -247.61 -156.56 -118.91 152.18 211.83 202.37 -341.16 436.67 -1112.33 -1213.77 476.87 -610.38zm648.4 867.28c-160.83,-93.14 -356.93,-212.24 -588.91,-357.13 213.29,233.82 372.29,400.45 476.99,500.41l111.92 -143.28zm-165.46 -1655.97l1406.25 811.9 -268.17 464.48 -1406.27 -811.89 268.19 -464.49z"/>
   <g>
    <g>
     <path class="fil0" d="M8690.61 11813.56l201.24 0 0 570.16 1322.83 0 0 -570.16 201.24 0 0 2406.41 779.76 0 0 -2406.41 201.23 0 0 2406.41 1618.25 0 0 -2014.95 -2427.79 -1355.78 93.12 -167.53 2432.17 1358.23 3.13 0 -0.02 -0.97c324.26,6.42 617.71,-170.79 897.17,-431.49 -98.84,552.42 -343.31,896.77 -796.58,942.63l0 1668.82c125.41,-4.2 213.27,-24.91 347.98,-122.73 -45.43,248.08 -151.38,372.6 -347.98,396.25l0 507.3 -201.22 0 0 -503.09 -729.48 0 0 503.09 -201.24 0 0 -503.09 -687.54 0 0 320.5 53.89 0 -0.12 -4.18c6.38,1.54 12.7,2.92 19.04,4.18 173.32,0 267.53,-6.13 429.55,-123.78 -50.83,277.51 -177.39,400.46 -421.81,400.46l-80.56 0 0 534.75 -201.23 0 0 -534.75 -301.84 0 0 534.75 -201.22 0 0 -534.75 -276.7 0 0 534.75 -201.24 0 0 -177.99 -1322.83 0 0 177.99 -201.24 0 0 -534.75 -276.69 0 0 534.75 -201.24 0 0 -534.75 -301.82 0 0 534.75 -201.24 0 0 -534.75 -80.57 0c-244.41,0 -370.97,-122.95 -421.8,-400.46 162.03,117.65 256.24,123.78 429.54,123.78 6.33,-1.26 12.67,-2.64 19.06,-4.18l-0.13 4.18 53.9 0 0 -320.5 -687.55 0 0 503.09 -201.24 0 0 -503.09 -729.47 0 0 503.09 -201.23 0 0 -507.3c-196.6,-23.64 -302.54,-148.17 -347.98,-396.25 134.72,97.82 222.57,118.53 347.98,122.73l0 -1668.82c-453.26,-45.86 -697.73,-390.21 -796.58,-942.63 279.46,260.69 572.94,437.91 897.19,431.49l-0.03 0.97 3.12 0 2432.17 -1358.23 93.14 167.53 -2427.8 1355.78 0 2014.95 1618.25 0 0 -2406.41 201.24 0 0 2406.41 779.74 0 0 -2406.41zm1524.06 3502.88l0 -221.54 -1322.83 0 0 221.54 1322.83 0zm0 -355.7l0 -207.59 -1322.83 0 0 207.59 1322.83 0zm0 -341.75l0 -281.63 -559.81 0 -201.24 0 -561.78 0 0 281.63 1322.83 0zm-1322.83 -2101.11l0 1685.32 561.78 0 0 -1685.32 -561.78 0zm763.02 0l0 1685.32 559.81 0 0 -1685.32 -559.81 0zm1339.54 167.69l-402.43 0 0 1115.17 402.43 0 0 -1115.17zm1593.09 0l-804.88 0 0 1115.17 804.88 0 0 -1115.17zm-4475.38 0l402.45 0 0 1115.17 -402.45 0 0 -1115.17zm-1593.08 0l804.87 0 0 1115.17 -804.87 0 0 -1115.17z"/>
     <path class="fil3" d="M8344.58 7059.08c397.96,-7.9 724.06,103.83 978.42,335.24l448.34 0c254.35,-231.41 580.46,-343.14 978.42,-335.24 -135.71,183.07 -278.52,413.28 -433.94,727.39 191.86,1298.91 427.06,2574.51 949.67,3967.41l489.4 -189.64 125.64 107.69 -511.44 350c-1681.32,0 -1953.58,0 -3643.85,0l-511.44 -350 125.64 -107.69 489.39 189.64c522.62,-1392.9 757.83,-2668.51 949.67,-3967.41 -155.42,-314.11 -298.2,-544.32 -433.93,-727.39z"/>
    </g>
    <g>
     <path class="fil4" d="M7844.19 19619.02c0,-80.53 152.99,-145.84 341.72,-145.84 188.67,0 341.68,65.31 341.68,145.84m-1367.01 0c0,-80.53 152.99,-145.84 341.72,-145.84 188.67,0 341.68,65.31 341.68,145.84m3418.39 0c0,-80.53 152.99,-145.84 341.71,-145.84 188.68,0 341.68,65.31 341.68,145.84m-1367.01 0c0,-80.53 153,-145.84 341.72,-145.84 188.68,0 341.67,65.31 341.67,145.84m-1367 0c0,-80.53 152.97,-145.84 341.7,-145.84 188.66,0 341.66,65.31 341.66,145.84m-1367 0c0,-80.53 152.99,-145.84 341.72,-145.84 188.67,0 341.67,65.31 341.67,145.84m-1367.01 0c0,-80.53 153,-145.84 341.73,-145.84 188.67,0 341.64,65.31 341.64,145.84"/>
     <path class="fil5" d="M7844.09 19559.05c19.66,-24.67 51.4,-46.33 92.03,-63.48 64.46,-27.24 152.83,-44.26 249.8,-44.26 96.93,0 185.32,17.03 249.78,44.26 40.64,17.15 72.35,38.82 92.03,63.51 19.64,-24.7 51.4,-46.36 92.05,-63.51 64.47,-27.24 152.82,-44.26 249.81,-44.26 96.92,0 185.28,17.03 249.74,44.26 40.64,17.15 72.36,38.82 92.03,63.51 19.64,-24.7 51.41,-46.36 92.06,-63.51 64.46,-27.24 152.83,-44.26 249.8,-44.26 96.93,0 185.3,17.03 249.78,44.26 40.64,17.15 72.35,38.82 92.02,63.51 19.64,-24.7 51.41,-46.36 92.06,-63.51 64.41,-27.21 152.77,-44.26 249.78,-44.26 96.92,0 185.3,17.03 249.77,44.26 40.64,17.15 72.35,38.82 92.03,63.51 19.64,-24.7 51.4,-46.36 92.06,-63.51 64.46,-27.24 152.81,-44.26 249.79,-44.26 96.92,0 185.31,17.03 249.77,44.26 40.62,17.15 72.36,38.79 92.04,63.48 19.66,-24.67 51.39,-46.33 92.03,-63.48 64.46,-27.24 152.82,-44.26 249.79,-44.26 96.94,0 185.31,17.03 249.79,44.26 70.68,29.84 114.5,73.35 114.5,122.71l-45.23 0c0,-29.59 -33.2,-58.56 -86.76,-81.17 -59.08,-24.96 -141.19,-40.57 -232.3,-40.57 -91.12,0 -173.22,15.62 -232.3,40.57 -53.61,22.6 -86.81,51.61 -86.81,81.17l-0.22 0 -45 0 -0.23 0c0,-29.59 -33.2,-58.56 -86.76,-81.17 -59.08,-24.96 -141.19,-40.57 -232.3,-40.57 -91.12,0 -173.23,15.62 -232.31,40.57 -53.6,22.6 -86.8,51.61 -86.8,81.17l-0.25 0 -44.98 0 -0.26 0c0,-29.59 -33.2,-58.56 -86.77,-81.17 -59.08,-24.96 -141.18,-40.57 -232.28,-40.57 -91.16,0 -173.23,15.62 -232.29,40.57 -53.6,22.6 -86.8,51.61 -86.8,81.17l-0.26 0 -44.98 0 -0.25 0c0,-29.59 -33.2,-58.56 -86.77,-81.17 -59.08,-24.96 -141.18,-40.57 -232.29,-40.57 -91.13,0 -173.24,15.62 -232.31,40.57 -53.6,22.6 -86.8,51.61 -86.8,81.17l-0.26 0 -44.98 0 -0.25 0c0,-29.59 -33.21,-58.56 -86.78,-81.17 -59.07,-24.96 -141.14,-40.57 -232.25,-40.57 -91.13,0 -173.24,15.62 -232.32,40.57 -53.59,22.6 -86.79,51.61 -86.79,81.17l-0.26 0 -44.98 0 -0.26 0c0,-29.59 -33.2,-58.56 -86.77,-81.17 -59.07,-24.96 -141.18,-40.57 -232.29,-40.57 -91.13,0 -173.22,15.62 -232.31,40.57 -53.59,22.6 -86.8,51.61 -86.8,81.17l-0.23 0 -44.99 0 -0.23 0c0,-29.59 -33.2,-58.56 -86.77,-81.17 -59.07,-24.96 -141.18,-40.57 -232.29,-40.57 -91.13,0 -173.23,15.62 -232.32,40.57 -53.59,22.6 -86.79,51.61 -86.79,81.17l-45.23 0c0,-49.36 43.79,-92.84 114.53,-122.71 64.46,-27.24 152.82,-44.26 249.8,-44.26 96.93,0 185.3,17.03 249.77,44.26 40.62,17.15 72.36,38.79 92.03,63.48z"/>
     <path class="fil6" d="M7844.19 19390.97c0,-80.53 152.99,-145.84 341.72,-145.84 188.67,0 341.68,65.31 341.68,145.84m-1367.01 0c0,-80.53 152.99,-145.84 341.72,-145.84 188.67,0 341.68,65.31 341.68,145.84m3418.39 0c0,-80.53 152.99,-145.84 341.71,-145.84 188.68,0 341.68,65.31 341.68,145.84m-1367.01 0c0,-80.53 153,-145.84 341.72,-145.84 188.68,0 341.67,65.31 341.67,145.84m-1367 0c0,-80.53 152.97,-145.84 341.7,-145.84 188.66,0 341.66,65.31 341.66,145.84m-1367 0c0,-80.53 152.99,-145.84 341.72,-145.84 188.67,0 341.67,65.31 341.67,145.84m-1367.01 0c0,-80.53 153,-145.84 341.73,-145.84 188.67,0 341.64,65.31 341.64,145.84"/>
     <path class="fil5" d="M7844.09 19330.99c19.66,-24.66 51.4,-46.33 92.03,-63.48 64.46,-27.24 152.83,-44.25 249.8,-44.25 96.93,0 185.32,17.02 249.78,44.25 40.64,17.15 72.35,38.82 92.03,63.51 19.64,-24.69 51.4,-46.36 92.05,-63.51 64.47,-27.24 152.82,-44.25 249.81,-44.25 96.92,0 185.28,17.02 249.74,44.25 40.64,17.15 72.36,38.82 92.03,63.51 19.64,-24.69 51.41,-46.36 92.06,-63.51 64.46,-27.24 152.83,-44.25 249.8,-44.25 96.93,0 185.3,17.02 249.78,44.25 40.64,17.15 72.35,38.82 92.02,63.51 19.64,-24.69 51.41,-46.36 92.06,-63.51 64.41,-27.2 152.77,-44.25 249.78,-44.25 96.92,0 185.3,17.02 249.77,44.25 40.64,17.15 72.35,38.82 92.03,63.51 19.64,-24.69 51.4,-46.36 92.06,-63.51 64.46,-27.24 152.81,-44.25 249.79,-44.25 96.92,0 185.31,17.02 249.77,44.25 40.62,17.15 72.36,38.8 92.04,63.48 19.66,-24.66 51.39,-46.33 92.03,-63.48 64.46,-27.24 152.82,-44.25 249.79,-44.25 96.94,0 185.31,17.02 249.79,44.25 70.68,29.85 114.5,73.36 114.5,122.72l-45.23 0c0,-29.59 -33.2,-58.56 -86.76,-81.19 -59.08,-24.95 -141.19,-40.56 -232.3,-40.56 -91.12,0 -173.22,15.62 -232.3,40.56 -53.61,22.62 -86.81,51.63 -86.81,81.19l-0.22 0 -45 0 -0.23 0c0,-29.59 -33.2,-58.56 -86.76,-81.19 -59.08,-24.95 -141.19,-40.56 -232.3,-40.56 -91.12,0 -173.23,15.62 -232.31,40.56 -53.6,22.62 -86.8,51.63 -86.8,81.19l-0.25 0 -44.98 0 -0.26 0c0,-29.59 -33.2,-58.56 -86.77,-81.19 -59.08,-24.95 -141.18,-40.56 -232.28,-40.56 -91.16,0 -173.23,15.62 -232.29,40.56 -53.6,22.62 -86.8,51.63 -86.8,81.19l-0.26 0 -44.98 0 -0.25 0c0,-29.59 -33.2,-58.56 -86.77,-81.19 -59.08,-24.95 -141.18,-40.56 -232.29,-40.56 -91.13,0 -173.24,15.62 -232.31,40.56 -53.6,22.62 -86.8,51.63 -86.8,81.19l-0.26 0 -44.98 0 -0.25 0c0,-29.59 -33.21,-58.56 -86.78,-81.19 -59.07,-24.95 -141.14,-40.56 -232.25,-40.56 -91.13,0 -173.24,15.62 -232.32,40.56 -53.59,22.62 -86.79,51.63 -86.79,81.19l-0.26 0 -44.98 0 -0.26 0c0,-29.59 -33.2,-58.56 -86.77,-81.19 -59.07,-24.95 -141.18,-40.56 -232.29,-40.56 -91.13,0 -173.22,15.62 -232.31,40.56 -53.59,22.62 -86.8,51.63 -86.8,81.19l-0.23 0 -44.99 0 -0.23 0c0,-29.59 -33.2,-58.56 -86.77,-81.19 -59.07,-24.95 -141.18,-40.56 -232.29,-40.56 -91.13,0 -173.23,15.62 -232.32,40.56 -53.59,22.62 -86.79,51.63 -86.79,81.19l-45.23 0c0,-49.36 43.79,-92.84 114.53,-122.72 64.46,-27.24 152.82,-44.25 249.8,-44.25 96.93,0 185.3,17.02 249.77,44.25 40.62,17.15 72.36,38.8 92.03,63.48z"/>
     <path class="fil6" d="M7844.19 19153.3c0,-80.53 152.99,-145.84 341.72,-145.84 188.67,0 341.68,65.31 341.68,145.84m-1367.01 0c0,-80.53 152.99,-145.84 341.72,-145.84 188.67,0 341.68,65.31 341.68,145.84m3418.39 0c0,-80.53 152.99,-145.84 341.71,-145.84 188.68,0 341.68,65.31 341.68,145.84m-1367.01 0c0,-80.53 153,-145.84 341.72,-145.84 188.68,0 341.67,65.31 341.67,145.84m-1367 0c0,-80.53 152.97,-145.84 341.7,-145.84 188.66,0 341.66,65.31 341.66,145.84m-1367 0c0,-80.53 152.99,-145.84 341.72,-145.84 188.67,0 341.67,65.31 341.67,145.84m-1367.01 0c0,-80.53 153,-145.84 341.73,-145.84 188.67,0 341.64,65.31 341.64,145.84"/>
     <path class="fil5" d="M7844.09 19093.33c19.66,-24.67 51.4,-46.34 92.03,-63.49 64.46,-27.23 152.83,-44.25 249.8,-44.25 96.93,0 185.32,17.03 249.78,44.25 40.64,17.15 72.35,38.82 92.03,63.52 19.64,-24.7 51.4,-46.37 92.05,-63.52 64.47,-27.23 152.82,-44.25 249.81,-44.25 96.92,0 185.28,17.03 249.74,44.25 40.64,17.15 72.36,38.82 92.03,63.52 19.64,-24.7 51.41,-46.37 92.06,-63.52 64.46,-27.23 152.83,-44.25 249.8,-44.25 96.93,0 185.3,17.03 249.78,44.25 40.64,17.15 72.35,38.82 92.02,63.52 19.64,-24.7 51.41,-46.37 92.06,-63.52 64.41,-27.2 152.77,-44.25 249.78,-44.25 96.92,0 185.3,17.03 249.77,44.25 40.64,17.15 72.35,38.82 92.03,63.52 19.64,-24.7 51.4,-46.37 92.06,-63.52 64.46,-27.23 152.81,-44.25 249.79,-44.25 96.92,0 185.31,17.03 249.77,44.25 40.62,17.15 72.36,38.8 92.04,63.49 19.66,-24.67 51.39,-46.34 92.03,-63.49 64.46,-27.23 152.82,-44.25 249.79,-44.25 96.94,0 185.31,17.03 249.79,44.25 70.68,29.85 114.5,73.35 114.5,122.72l-45.23 0c0,-29.59 -33.2,-58.56 -86.76,-81.19 -59.08,-24.94 -141.19,-40.55 -232.3,-40.55 -91.12,0 -173.22,15.62 -232.3,40.55 -53.61,22.62 -86.81,51.62 -86.81,81.19l-0.22 0 -45 0 -0.23 0c0,-29.59 -33.2,-58.56 -86.76,-81.19 -59.08,-24.94 -141.19,-40.55 -232.3,-40.55 -91.12,0 -173.23,15.62 -232.31,40.55 -53.6,22.62 -86.8,51.62 -86.8,81.19l-0.25 0 -44.98 0 -0.26 0c0,-29.59 -33.2,-58.56 -86.77,-81.19 -59.08,-24.94 -141.18,-40.55 -232.28,-40.55 -91.16,0 -173.23,15.62 -232.29,40.55 -53.6,22.62 -86.8,51.62 -86.8,81.19l-0.26 0 -44.98 0 -0.25 0c0,-29.59 -33.2,-58.56 -86.77,-81.19 -59.08,-24.94 -141.18,-40.55 -232.29,-40.55 -91.13,0 -173.24,15.62 -232.31,40.55 -53.6,22.62 -86.8,51.62 -86.8,81.19l-0.26 0 -44.98 0 -0.25 0c0,-29.59 -33.21,-58.56 -86.78,-81.19 -59.07,-24.94 -141.14,-40.55 -232.25,-40.55 -91.13,0 -173.24,15.62 -232.32,40.55 -53.59,22.62 -86.79,51.62 -86.79,81.19l-0.26 0 -44.98 0 -0.26 0c0,-29.59 -33.2,-58.56 -86.77,-81.19 -59.07,-24.94 -141.18,-40.55 -232.29,-40.55 -91.13,0 -173.22,15.62 -232.31,40.55 -53.59,22.62 -86.8,51.62 -86.8,81.19l-0.23 0 -44.99 0 -0.23 0c0,-29.59 -33.2,-58.56 -86.77,-81.19 -59.07,-24.94 -141.18,-40.55 -232.29,-40.55 -91.13,0 -173.23,15.62 -232.32,40.55 -53.59,22.62 -86.79,51.62 -86.79,81.19l-45.23 0c0,-49.37 43.79,-92.85 114.53,-122.72 64.46,-27.23 152.82,-44.25 249.8,-44.25 96.93,0 185.3,17.03 249.77,44.25 40.62,17.15 72.36,38.8 92.03,63.49z"/>
     <path class="fil6" d="M7844.19 18957c0,-80.53 152.99,-145.85 341.72,-145.85 188.67,0 341.68,65.32 341.68,145.85m-1367.01 0c0,-80.53 152.99,-145.85 341.72,-145.85 188.67,0 341.68,65.32 341.68,145.85m3418.39 0c0,-80.53 152.99,-145.85 341.71,-145.85 188.68,0 341.68,65.32 341.68,145.85m-1367.01 0c0,-80.53 153,-145.85 341.72,-145.85 188.68,0 341.67,65.32 341.67,145.85m-1367 0c0,-80.53 152.97,-145.85 341.7,-145.85 188.66,0 341.66,65.32 341.66,145.85m-1367 0c0,-80.53 152.99,-145.85 341.72,-145.85 188.67,0 341.67,65.32 341.67,145.85m-1367.01 0c0,-80.53 153,-145.85 341.73,-145.85 188.67,0 341.64,65.32 341.64,145.85"/>
     <path class="fil5" d="M7844.09 18897.03c19.66,-24.68 51.4,-46.34 92.03,-63.49 64.46,-27.23 152.83,-44.26 249.8,-44.26 96.93,0 185.32,17.04 249.78,44.26 40.64,17.15 72.35,38.82 92.03,63.51 19.64,-24.7 51.4,-46.36 92.05,-63.51 64.47,-27.23 152.82,-44.26 249.81,-44.26 96.92,0 185.28,17.04 249.74,44.26 40.64,17.15 72.36,38.82 92.03,63.51 19.64,-24.7 51.41,-46.36 92.06,-63.51 64.46,-27.23 152.83,-44.26 249.8,-44.26 96.93,0 185.3,17.04 249.78,44.26 40.64,17.15 72.35,38.82 92.02,63.51 19.64,-24.7 51.41,-46.36 92.06,-63.51 64.41,-27.21 152.77,-44.26 249.78,-44.26 96.92,0 185.3,17.04 249.77,44.26 40.64,17.15 72.35,38.82 92.03,63.51 19.64,-24.7 51.4,-46.36 92.06,-63.51 64.46,-27.23 152.81,-44.26 249.79,-44.26 96.92,0 185.31,17.04 249.77,44.26 40.62,17.15 72.36,38.8 92.04,63.49 19.66,-24.68 51.39,-46.34 92.03,-63.49 64.46,-27.23 152.82,-44.26 249.79,-44.26 96.94,0 185.31,17.04 249.79,44.26 70.68,29.84 114.5,73.35 114.5,122.71l-45.23 0c0,-29.59 -33.2,-58.56 -86.76,-81.17 -59.08,-24.95 -141.19,-40.56 -232.3,-40.56 -91.12,0 -173.22,15.62 -232.3,40.56 -53.61,22.6 -86.81,51.61 -86.81,81.17l-0.22 0 -45 0 -0.23 0c0,-29.59 -33.2,-58.56 -86.76,-81.17 -59.08,-24.95 -141.19,-40.56 -232.3,-40.56 -91.12,0 -173.23,15.62 -232.31,40.56 -53.6,22.6 -86.8,51.61 -86.8,81.17l-0.25 0 -44.98 0 -0.26 0c0,-29.59 -33.2,-58.56 -86.77,-81.17 -59.08,-24.95 -141.18,-40.56 -232.28,-40.56 -91.16,0 -173.23,15.62 -232.29,40.56 -53.6,22.6 -86.8,51.61 -86.8,81.17l-0.26 0 -44.98 0 -0.25 0c0,-29.59 -33.2,-58.56 -86.77,-81.17 -59.08,-24.95 -141.18,-40.56 -232.29,-40.56 -91.13,0 -173.24,15.62 -232.31,40.56 -53.6,22.6 -86.8,51.61 -86.8,81.17l-0.26 0 -44.98 0 -0.25 0c0,-29.59 -33.21,-58.56 -86.78,-81.17 -59.07,-24.95 -141.14,-40.56 -232.25,-40.56 -91.13,0 -173.24,15.62 -232.32,40.56 -53.59,22.6 -86.79,51.61 -86.79,81.17l-0.26 0 -44.98 0 -0.26 0c0,-29.59 -33.2,-58.56 -86.77,-81.17 -59.07,-24.95 -141.18,-40.56 -232.29,-40.56 -91.13,0 -173.22,15.62 -232.31,40.56 -53.59,22.6 -86.8,51.61 -86.8,81.17l-0.23 0 -44.99 0 -0.23 0c0,-29.59 -33.2,-58.56 -86.77,-81.17 -59.07,-24.95 -141.18,-40.56 -232.29,-40.56 -91.13,0 -173.23,15.62 -232.32,40.56 -53.59,22.6 -86.79,51.61 -86.79,81.17l-45.23 0c0,-49.36 43.79,-92.84 114.53,-122.71 64.46,-27.23 152.82,-44.26 249.8,-44.26 96.93,0 185.3,17.04 249.77,44.26 40.62,17.15 72.36,38.8 92.03,63.49z"/>
     <g>
      <path class="fil0" d="M7817.35 18879.94l5.2 0c20.7,-21.29 49.94,-39.92 85.79,-55.06 65.63,-27.71 155.29,-45.04 253.45,-45.04 98.13,0 187.79,17.34 253.41,45.04 35.85,15.14 65.08,33.77 85.77,55.06l5.21 0c20.66,-21.29 49.97,-39.92 85.82,-55.06 65.62,-27.71 155.28,-45.04 253.43,-45.04 98.14,0 187.77,17.34 253.4,45.04 35.85,15.14 65.07,33.77 85.77,55.06l5.2 0c20.66,-21.29 49.97,-39.92 85.82,-55.06 65.62,-27.71 155.29,-45.04 253.45,-45.04 98.12,0 187.79,17.34 253.4,45.04 35.85,15.14 65.08,33.77 85.77,55.06l5.21 0c20.67,-21.29 49.98,-39.92 85.83,-55.06 65.56,-27.69 155.22,-45.04 253.41,-45.04 98.13,0 187.79,17.34 253.4,45.04 35.85,15.14 65.09,33.77 85.77,55.06l5.22 0c20.66,-21.29 49.97,-39.92 85.82,-55.06 65.61,-27.71 155.29,-45.04 253.43,-45.04 98.13,0 187.81,17.34 253.42,45.04 35.83,15.14 65.14,33.77 85.8,55.06l5.2 0c20.7,-21.29 49.92,-39.92 85.77,-55.06 65.61,-27.71 155.29,-45.04 253.44,-45.04 98.14,0 187.8,17.34 253.41,45.04 25.18,10.62 47.1,23.04 65.09,36.8l867.25 -1196.18 463.59 -120.08 118.27 -202.44 -833.89 37.47 -1091.54 970.26 -22.06 0 0 -1029.04 260.86 0c351.38,0 710.49,-82.2 710.49,-464.54l-1677.82 0 -264.82 0 -1677.81 0c0,382.34 359.1,464.54 710.49,464.54l301.32 0 0 1029.04 -2078.38 0 -1091.56 -970.26 -833.87 -37.47 118.25 202.44 463.59 120.08 851.79 1174.85c9.99,-5.48 20.73,-10.63 32.12,-15.46 65.62,-27.71 155.29,-45.04 253.45,-45.04 98.12,0 187.79,17.34 253.41,45.04 35.82,15.14 65.11,33.77 85.77,55.06zm2066.71 -1558.27l544.72 0 1.4 0 16.9 0 2.35 0 16.03 0 3.18 0 15.3 0 3.82 0 14.75 0 4.32 0 14.31 0 4.69 0 14.03 0 4.92 0 13.9 0 4.97 0 13.91 0 4.92 0 14.03 0 4.69 0 14.3 0 4.34 0 14.73 0 3.82 0 15.32 0 3.17 0 16.03 0 2.35 0 16.9 0 1.4 0 585.19 0 0 1029.04 -1394.73 0 0 -1029.04z"/>
      <path class="fil2" d="M7819.95 19079c20.82,-22.41 51.01,-42.03 88.39,-57.8 65.63,-27.72 155.29,-45.05 253.45,-45.05 98.13,0 187.79,17.34 253.41,45.05 37.38,15.77 67.57,35.38 88.38,57.8 20.8,-22.41 51.03,-42.03 88.41,-57.8 65.62,-27.72 155.28,-45.05 253.43,-45.05 98.14,0 187.77,17.34 253.4,45.05 37.38,15.77 67.56,35.38 88.37,57.8 20.8,-22.41 51.03,-42.03 88.41,-57.8 65.62,-27.72 155.29,-45.05 253.45,-45.05 98.12,0 187.79,17.34 253.4,45.05 37.38,15.77 67.58,35.38 88.39,57.8 20.8,-22.41 51.02,-42.03 88.41,-57.8 65.56,-27.69 155.22,-45.05 253.41,-45.05 98.13,0 187.79,17.34 253.4,45.05 37.4,15.77 67.58,35.38 88.39,57.8 20.8,-22.41 51.03,-42.03 88.41,-57.8 65.61,-27.72 155.29,-45.05 253.43,-45.05 98.13,0 187.81,17.34 253.42,45.05 37.36,15.77 67.59,35.38 88.39,57.8 20.82,-22.41 50.99,-42.03 88.37,-57.8 65.61,-27.72 155.29,-45.05 253.44,-45.05 98.14,0 187.8,17.34 253.41,45.05 74.29,31.37 120.31,77.88 120.31,131.36l-64.1 0c0,-25.46 -30.97,-51.44 -80.98,-72.54 -57.93,-24.47 -138.69,-39.78 -228.64,-39.78 -89.97,0 -170.74,15.31 -228.67,39.78 -50.02,21.09 -80.99,47.08 -80.99,72.54l-0.23 0 -63.87 0 -0.23 0c0,-25.46 -30.98,-51.44 -80.98,-72.54 -57.93,-24.47 -138.7,-39.78 -228.65,-39.78 -89.97,0 -170.73,15.31 -228.66,39.78 -50.03,21.09 -80.99,47.08 -80.99,72.54l-0.26 0 -63.84 0 -0.27 0c0,-25.46 -30.96,-51.44 -80.98,-72.54 -57.91,-24.47 -138.68,-39.78 -228.63,-39.78 -89.98,0 -170.75,15.31 -228.64,39.78 -50.03,21.09 -80.99,47.08 -80.99,72.54l-0.27 0 -63.85 0 -0.25 0c0,-25.46 -30.98,-51.44 -80.98,-72.54 -57.93,-24.47 -138.68,-39.78 -228.63,-39.78 -89.98,0 -170.75,15.31 -228.67,39.78 -50.02,21.09 -81,47.08 -81,72.54l-0.25 0 -63.85 0 -0.27 0c0,-25.46 -30.96,-51.44 -80.97,-72.54 -57.92,-24.47 -138.67,-39.78 -228.63,-39.78 -89.97,0 -170.73,15.31 -228.65,39.78 -50.04,21.09 -81,47.08 -81,72.54l-0.27 0 -63.83 0 -0.27 0c0,-25.46 -30.96,-51.44 -80.98,-72.54 -57.91,-24.47 -138.68,-39.78 -228.63,-39.78 -89.98,0 -170.75,15.31 -228.67,39.78 -50.02,21.09 -81,47.08 -81,72.54l-0.23 0 -63.87 0 -0.23 0c0,-25.46 -30.97,-51.44 -80.98,-72.54 -57.92,-24.47 -138.69,-39.78 -228.63,-39.78 -89.98,0 -170.75,15.31 -228.67,39.78 -50.02,21.09 -81,47.08 -81,72.54l-64.1 0c0,-53.48 46.02,-99.99 120.33,-131.36 65.62,-27.72 155.29,-45.05 253.45,-45.05 98.12,0 187.79,17.34 253.41,45.05 37.35,15.77 67.56,35.38 88.37,57.8z"/>
      <path class="fil2" d="M7819.95 19316.66c20.82,-22.4 51.01,-42.03 88.39,-57.8 65.63,-27.72 155.29,-45.04 253.45,-45.04 98.13,0 187.79,17.33 253.41,45.04 37.38,15.77 67.57,35.39 88.38,57.8 20.8,-22.4 51.03,-42.03 88.41,-57.8 65.62,-27.72 155.28,-45.04 253.43,-45.04 98.14,0 187.77,17.33 253.4,45.04 37.38,15.77 67.56,35.39 88.37,57.8 20.8,-22.4 51.03,-42.03 88.41,-57.8 65.62,-27.72 155.29,-45.04 253.45,-45.04 98.12,0 187.79,17.33 253.4,45.04 37.38,15.77 67.58,35.39 88.39,57.8 20.8,-22.4 51.02,-42.03 88.41,-57.8 65.56,-27.69 155.22,-45.04 253.41,-45.04 98.13,0 187.79,17.33 253.4,45.04 37.4,15.77 67.58,35.39 88.39,57.8 20.8,-22.4 51.03,-42.03 88.41,-57.8 65.61,-27.72 155.29,-45.04 253.43,-45.04 98.13,0 187.81,17.33 253.42,45.04 37.36,15.77 67.59,35.39 88.39,57.8 20.82,-22.4 50.99,-42.03 88.37,-57.8 65.61,-27.72 155.29,-45.04 253.44,-45.04 98.14,0 187.8,17.33 253.41,45.04 74.29,31.36 120.31,77.87 120.31,131.36l-64.1 0c0,-25.47 -30.97,-51.44 -80.98,-72.54 -57.93,-24.47 -138.69,-39.77 -228.64,-39.77 -89.97,0 -170.74,15.3 -228.67,39.77 -50.02,21.09 -80.99,47.07 -80.99,72.54l-0.23 0 -63.87 0 -0.23 0c0,-25.47 -30.98,-51.44 -80.98,-72.54 -57.93,-24.47 -138.7,-39.77 -228.65,-39.77 -89.97,0 -170.73,15.3 -228.66,39.77 -50.03,21.09 -80.99,47.07 -80.99,72.54l-0.26 0 -63.84 0 -0.27 0c0,-25.47 -30.96,-51.44 -80.98,-72.54 -57.91,-24.47 -138.68,-39.77 -228.63,-39.77 -89.98,0 -170.75,15.3 -228.64,39.77 -50.03,21.09 -80.99,47.07 -80.99,72.54l-0.27 0 -63.85 0 -0.25 0c0,-25.47 -30.98,-51.44 -80.98,-72.54 -57.93,-24.47 -138.68,-39.77 -228.63,-39.77 -89.98,0 -170.75,15.3 -228.67,39.77 -50.02,21.09 -81,47.07 -81,72.54l-0.25 0 -63.85 0 -0.27 0c0,-25.47 -30.96,-51.44 -80.97,-72.54 -57.92,-24.47 -138.67,-39.77 -228.63,-39.77 -89.97,0 -170.73,15.3 -228.65,39.77 -50.04,21.09 -81,47.07 -81,72.54l-0.27 0 -63.83 0 -0.27 0c0,-25.47 -30.96,-51.44 -80.98,-72.54 -57.91,-24.47 -138.68,-39.77 -228.63,-39.77 -89.98,0 -170.75,15.3 -228.67,39.77 -50.02,21.09 -81,47.07 -81,72.54l-0.23 0 -63.87 0 -0.23 0c0,-25.47 -30.97,-51.44 -80.98,-72.54 -57.92,-24.47 -138.69,-39.77 -228.63,-39.77 -89.98,0 -170.75,15.3 -228.67,39.77 -50.02,21.09 -81,47.07 -81,72.54l-64.1 0c0,-53.49 46.02,-100 120.33,-131.36 65.62,-27.72 155.29,-45.04 253.45,-45.04 98.12,0 187.79,17.33 253.41,45.04 37.35,15.77 67.56,35.39 88.37,57.8z"/>
      <path class="fil2" d="M7819.95 19544.72c20.82,-22.41 51.01,-42.03 88.39,-57.81 65.63,-27.72 155.29,-45.04 253.45,-45.04 98.13,0 187.79,17.33 253.41,45.04 37.38,15.77 67.57,35.39 88.38,57.81 20.8,-22.41 51.03,-42.03 88.41,-57.81 65.62,-27.72 155.28,-45.04 253.43,-45.04 98.14,0 187.77,17.33 253.4,45.04 37.38,15.77 67.56,35.39 88.37,57.81 20.8,-22.41 51.03,-42.03 88.41,-57.81 65.62,-27.72 155.29,-45.04 253.45,-45.04 98.12,0 187.79,17.33 253.4,45.04 37.38,15.77 67.58,35.39 88.39,57.81 20.8,-22.41 51.02,-42.03 88.41,-57.81 65.56,-27.69 155.22,-45.04 253.41,-45.04 98.13,0 187.79,17.33 253.4,45.04 37.4,15.77 67.58,35.39 88.39,57.81 20.8,-22.41 51.03,-42.03 88.41,-57.81 65.61,-27.72 155.29,-45.04 253.43,-45.04 98.13,0 187.81,17.33 253.42,45.04 37.36,15.77 67.59,35.39 88.39,57.81 20.82,-22.41 50.99,-42.03 88.37,-57.81 65.61,-27.72 155.29,-45.04 253.44,-45.04 98.14,0 187.8,17.33 253.41,45.04 74.29,31.37 120.31,77.88 120.31,131.36l-64.1 0c0,-25.46 -30.97,-51.42 -80.98,-72.54 -57.93,-24.46 -138.69,-39.77 -228.64,-39.77 -89.97,0 -170.74,15.31 -228.67,39.77 -50.02,21.11 -80.99,47.08 -80.99,72.54l-0.23 0 -63.87 0 -0.23 0c0,-25.46 -30.98,-51.42 -80.98,-72.54 -57.93,-24.46 -138.7,-39.77 -228.65,-39.77 -89.97,0 -170.73,15.31 -228.66,39.77 -50.03,21.11 -80.99,47.08 -80.99,72.54l-0.26 0 -63.84 0 -0.27 0c0,-25.46 -30.96,-51.42 -80.98,-72.54 -57.91,-24.46 -138.68,-39.77 -228.63,-39.77 -89.98,0 -170.75,15.31 -228.64,39.77 -50.03,21.11 -80.99,47.08 -80.99,72.54l-0.27 0 -63.85 0 -0.25 0c0,-25.46 -30.98,-51.42 -80.98,-72.54 -57.93,-24.46 -138.68,-39.77 -228.63,-39.77 -89.98,0 -170.75,15.31 -228.67,39.77 -50.02,21.11 -81,47.08 -81,72.54l-0.25 0 -63.85 0 -0.27 0c0,-25.46 -30.96,-51.42 -80.97,-72.54 -57.92,-24.46 -138.67,-39.77 -228.63,-39.77 -89.97,0 -170.73,15.31 -228.65,39.77 -50.04,21.11 -81,47.08 -81,72.54l-0.27 0 -63.83 0 -0.27 0c0,-25.46 -30.96,-51.42 -80.98,-72.54 -57.91,-24.46 -138.68,-39.77 -228.63,-39.77 -89.98,0 -170.75,15.31 -228.67,39.77 -50.02,21.11 -81,47.08 -81,72.54l-0.23 0 -63.87 0 -0.23 0c0,-25.46 -30.97,-51.42 -80.98,-72.54 -57.92,-24.46 -138.69,-39.77 -228.63,-39.77 -89.98,0 -170.75,15.31 -228.67,39.77 -50.02,21.11 -81,47.08 -81,72.54l-64.1 0c0,-53.48 46.02,-99.99 120.33,-131.36 65.62,-27.72 155.29,-45.04 253.45,-45.04 98.12,0 187.79,17.33 253.41,45.04 37.35,15.77 67.56,35.39 88.37,57.81z"/>
      <path class="fil2" d="M7819.95 18882.69c20.82,-22.41 51.01,-42.03 88.39,-57.81 65.63,-27.71 155.29,-45.04 253.45,-45.04 98.13,0 187.79,17.34 253.41,45.04 37.38,15.78 67.57,35.39 88.38,57.81 20.8,-22.41 51.03,-42.03 88.41,-57.81 65.62,-27.71 155.28,-45.04 253.43,-45.04 98.14,0 187.77,17.34 253.4,45.04 37.38,15.78 67.56,35.39 88.37,57.81 20.8,-22.41 51.03,-42.03 88.41,-57.81 65.62,-27.71 155.29,-45.04 253.45,-45.04 98.12,0 187.79,17.34 253.4,45.04 37.38,15.78 67.58,35.39 88.39,57.81 20.8,-22.41 51.02,-42.03 88.41,-57.81 65.56,-27.69 155.22,-45.04 253.41,-45.04 98.13,0 187.79,17.34 253.4,45.04 37.4,15.78 67.58,35.39 88.39,57.81 20.8,-22.41 51.03,-42.03 88.41,-57.81 65.61,-27.71 155.29,-45.04 253.43,-45.04 98.13,0 187.81,17.34 253.42,45.04 37.36,15.78 67.59,35.39 88.39,57.81 20.82,-22.41 50.99,-42.03 88.37,-57.81 65.61,-27.71 155.29,-45.04 253.44,-45.04 98.14,0 187.8,17.34 253.41,45.04 74.29,31.37 120.31,77.88 120.31,131.36l-64.1 0c0,-25.46 -30.97,-51.42 -80.98,-72.53 -57.93,-24.46 -138.69,-39.78 -228.64,-39.78 -89.97,0 -170.74,15.32 -228.67,39.78 -50.02,21.1 -80.99,47.07 -80.99,72.53l-0.23 0 -63.87 0 -0.23 0c0,-25.46 -30.98,-51.42 -80.98,-72.53 -57.93,-24.46 -138.7,-39.78 -228.65,-39.78 -89.97,0 -170.73,15.32 -228.66,39.78 -50.03,21.1 -80.99,47.07 -80.99,72.53l-0.26 0 -63.84 0 -0.27 0c0,-25.46 -30.96,-51.42 -80.98,-72.53 -57.91,-24.46 -138.68,-39.78 -228.63,-39.78 -89.98,0 -170.75,15.32 -228.64,39.78 -50.03,21.1 -80.99,47.07 -80.99,72.53l-0.27 0 -63.85 0 -0.25 0c0,-25.46 -30.98,-51.42 -80.98,-72.53 -57.93,-24.46 -138.68,-39.78 -228.63,-39.78 -89.98,0 -170.75,15.32 -228.67,39.78 -50.02,21.1 -81,47.07 -81,72.53l-0.25 0 -63.85 0 -0.27 0c0,-25.46 -30.96,-51.42 -80.97,-72.53 -57.92,-24.46 -138.67,-39.78 -228.63,-39.78 -89.97,0 -170.73,15.32 -228.65,39.78 -50.04,21.1 -81,47.07 -81,72.53l-0.27 0 -63.83 0 -0.27 0c0,-25.46 -30.96,-51.42 -80.98,-72.53 -57.91,-24.46 -138.68,-39.78 -228.63,-39.78 -89.98,0 -170.75,15.32 -228.67,39.78 -50.02,21.1 -81,47.07 -81,72.53l-0.23 0 -63.87 0 -0.23 0c0,-25.46 -30.97,-51.42 -80.98,-72.53 -57.92,-24.46 -138.69,-39.78 -228.63,-39.78 -89.98,0 -170.75,15.32 -228.67,39.78 -50.02,21.1 -81,47.07 -81,72.53l-64.1 0c0,-53.48 46.02,-99.99 120.33,-131.36 65.62,-27.71 155.29,-45.04 253.45,-45.04 98.12,0 187.79,17.34 253.41,45.04 37.35,15.78 67.56,35.39 88.37,57.81z"/>
     </g>
    </g>
   </g>
   <g>
    <g>
     <path class="fil6" d="M5406.53 9591.67c-5520.66,4103 -2163.12,12327.39 2975.08,13127.02 942.96,146.67 1516.96,-178.26 2254.04,664.67"/>
     <path class="fil5" d="M5444.58 9643c-1629.65,1211.17 -2478.61,2784.27 -2732.65,4416.93 -162.32,1042.94 -82.04,2111.02 192.4,3125.23 274.51,1014.52 743.32,1974.74 1357.88,2801.64 1038.62,1397.48 2493.23,2414.2 4129.16,2668.78 265.09,41.23 502.05,44.62 721.42,47.71 569.79,8.09 1025.85,14.63 1570.93,637.99l-96.15 84.16c-507.73,-580.64 -938.32,-586.8 -1476.27,-594.44 -223.85,-3.17 -465.7,-6.61 -739.47,-49.2 -1670.93,-260.05 -3154.64,-1295.77 -4212.29,-2718.89 -624.16,-839.83 -1100.25,-1814.78 -1378.91,-2844.66 -278.77,-1030.2 -360.13,-2116.2 -194.92,-3177.84 258.95,-1664.07 1123.48,-3266.9 2782.76,-4500.06l76.1 102.67z"/>
     <path class="fil7" d="M3481.13 11563.61c1006.81,-448.75 1628.31,-1066.15 1925.39,-1971.93 -1117.04,295.37 -1693.16,947.25 -1925.39,1971.93z"/>
     <path class="fil5" d="M3574.69 11450.23c441.29,-209.31 802.65,-454.21 1089.69,-746.04 284.07,-288.78 495.98,-624.36 641.37,-1017.78 -489.06,145.69 -865.16,365.75 -1147.41,661.8 -278.11,291.72 -466.57,658.6 -583.65,1102.01zm1180.84 -656.4c-324.09,329.47 -737.67,600.44 -1248.37,828.09l-116.62 51.97 28.21 -124.33c118.69,-523.67 325.95,-952.81 646.93,-1289.5 320.97,-336.67 754.18,-579.41 1324.57,-730.25l113.77 -30.06 -36.64 111.69c-151.7,462.47 -386.4,851.55 -711.84,1182.38z"/>
     <path class="fil7" d="M3346.92 11831.42c895.73,-54.54 1545.91,-347.7 2031.11,-953.42 -935.98,-93.88 -1561.4,238.56 -2031.11,953.42z"/>
     <path class="fil5" d="M3475.26 11757.61c384.08,-34.77 719.88,-117.38 1014.4,-254.31 290.47,-135.04 541.45,-323.44 759.87,-571.56 -401.88,-24.56 -741.9,35.87 -1034.09,177.29 -286.67,138.77 -529,356.31 -740.18,648.59zm1067.98 -138.1c-342.47,159.2 -736.57,248 -1192.57,275.77l-127.17 7.76 70.09 -106.65c241.26,-367.19 523.34,-636.58 866.27,-802.54 342.69,-165.89 744.31,-227.57 1224.44,-179.42l117.17 11.77 -73.59 91.87c-248.87,310.7 -540.37,541.39 -884.62,701.44z"/>
     <path class="fil7" d="M3338.37 11820.29c420.37,-792.86 509.07,-1500.54 245.06,-2230.33 -568,749.83 -610.28,1456.85 -245.06,2230.33z"/>
     <path class="fil5" d="M3342.36 11672.14c170.46,-345.84 274.98,-675.34 311.6,-997.68 36.14,-318.49 6.22,-631.02 -91.65,-946.7 -230.55,330.28 -356.21,651.8 -387.77,974.5 -30.97,316.85 28.35,637.1 167.82,969.87zm438.77 -983.67c-42.64,375.54 -172.28,758.22 -386.15,1161.63l-59.92 112.99 -54.52 -115.51c-187.49,-397.05 -270.29,-778.1 -233.19,-1157.31 37.11,-379.36 193.78,-754.36 485.01,-1138.85l71.12 -93.9 40.06 110.67c135.43,374.38 180.4,743.31 137.59,1120.29z"/>
     <path class="fil7" d="M2906.55 12880.18c881,-314.4 1408.83,-774.67 1632.36,-1472.24 -987.01,190.45 -1472.53,679.35 -1632.36,1472.24z"/>
     <path class="fil5" d="M2994.91 12779.13c382.03,-146.82 691.19,-323.7 931.84,-538.95 233.63,-209.04 403.77,-455.26 514.54,-746.52 -426.61,95.92 -749.54,252.89 -985.42,471.3 -228.62,211.7 -377.15,482.99 -460.95,814.16zm1016.95 -443.83c-276.69,247.55 -635.87,445.38 -1083.76,605.27l-106.5 38.03 22.36 -110.9c82.57,-409.64 250.08,-741.52 525.29,-996.37 273.76,-253.47 652.21,-428.72 1157.67,-526.23l105.8 -20.41 -32.91 102.79c-115.28,359.76 -309.18,658.48 -587.94,907.83z"/>
     <path class="fil7" d="M2946.33 12901.13c363.13,-1028.13 342.96,-1894.49 -105.05,-2724.23 -548.28,1002.87 -472.43,1860.1 105.05,2724.23z"/>
     <path class="fil5" d="M2928.35 12755.07c149.82,-458.8 219.84,-884.35 205.77,-1288.44 -13.9,-399.72 -110.42,-779.69 -293.46,-1151.45 -227.8,449.71 -325.57,869.04 -305.18,1272.88 20.05,397.4 154.84,781.76 392.87,1167.01zm333.46 -1292.44c15.92,457.11 -71.02,938.39 -255.15,1459.78l-42.54 120.42 -70.89 -106.13c-295.17,-441.67 -462.21,-882.7 -485.45,-1342.63 -23.21,-459.41 97.39,-935.51 377.39,-1447.67l56.49 -103.33 55.95 103.56c228.66,423.54 348.23,856.9 364.21,1316.01z"/>
     <path class="fil7" d="M2690.5 13917.73c812.41,-463.69 1251.58,-1009.21 1349.61,-1735.13 -938.47,360.21 -1330.96,926.5 -1349.61,1735.13z"/>
     <path class="fil5" d="M2759.84 13802.98c350.2,-211.26 623.65,-439.49 823.06,-693.79 193.56,-246.8 318.02,-519.12 376.1,-825.3 -402.88,169.01 -693.29,380.08 -887.52,636.67 -188.21,248.68 -287.1,541.84 -311.65,882.42zm923.73 -615.18c-228.92,291.93 -548.1,549.59 -961.52,785.54l-97.99 55.96 2.6 -112.8c9.65,-418.05 116.48,-774.21 342.68,-1073.06 224.93,-297.13 566.97,-535.78 1048.03,-720.44l100.57 -38.58 -14.42 106.68c-50.57,374.45 -189.21,702.5 -419.95,996.71z"/>
     <path class="fil7" d="M2733.34 13931.39c177.66,-1075.81 6.23,-1925.27 -580.04,-2663.84 -364.36,1083.33 -139.72,1914.08 580.04,2663.84z"/>
     <path class="fil5" d="M2690.14 13790.73c67.21,-477.67 61.63,-908.91 -22.94,-1304.42 -83.69,-391.32 -245.11,-748.59 -490.31,-1082.44 -145.57,482.52 -168.47,912.45 -77.75,1306.41 89.32,387.87 289.28,742.81 590.99,1080.45zm102.24 -1330.99c95.58,447.01 94.16,936.16 4.05,1481.91l-20.83 126.11 -88.35 -92.04c-367.88,-383.24 -609.51,-788.19 -712.82,-1236.88 -103.23,-448.29 -67.8,-938.24 118.28,-1491.56l37.54 -111.63 73.13 92.1c299.41,377.17 492.98,782.98 589.01,1231.98z"/>
     <path class="fil7" d="M2593.77 14876.37c812.4,-502.2 1251.56,-1093.03 1349.61,-1879.24 -938.47,390.12 -1330.97,1003.45 -1349.61,1879.24z"/>
     <path class="fil5" d="M2662.77 14756.85c349.33,-228.48 622.36,-475.62 821.91,-751.18 195.48,-269.95 320.69,-568.16 378.48,-903.9 -402.74,183.07 -693.04,411.66 -887.16,689.4 -189.92,271.73 -289.18,592.5 -313.22,965.68zm925.53 -676.04c-228.45,315.51 -547.44,594.31 -960.98,849.93l-99.92 61.74 2.51 -117.33c9.61,-450.6 115.99,-834.54 341.41,-1157.09 224.93,-321.81 566.8,-580.21 1047.54,-780.06l101.74 -42.28 -13.61 109.15c-50.41,404.06 -188.6,758.21 -418.7,1075.94z"/>
     <path class="fil7" d="M2635.45 14892.01c32.63,-1089.9 -250.55,-1908.91 -930.07,-2562.7 -216.65,1122.23 116.76,1915.61 930.07,2562.7z"/>
     <path class="fil5" d="M2573.94 14758.37c2.89,-482.5 -60.05,-909.14 -196.59,-1289.7 -135.07,-376.57 -342.72,-709.14 -630.31,-1007.39 -79.96,497.75 -45.38,926.85 97,1305.04 140.2,372.44 385.74,697.56 729.9,992.06zm-76.39 -1332.77c154.43,430.46 218.27,915.39 201.72,1468.16l-3.84 127.77 -99.82 -79.44c-415.59,-330.69 -709.05,-699.8 -871.26,-1130.7 -162.18,-430.75 -192.42,-921.03 -81.79,-1494.08l22.32 -115.67 84.85 81.61c346.91,333.77 592.78,710.05 747.82,1142.35z"/>
     <path class="fil7" d="M2673.49 15909.01c718.13,-629.7 1053.47,-1285.04 1020.09,-2076.65 -860.98,540.02 -1146.6,1209.84 -1020.09,2076.65z"/>
     <path class="fil5" d="M2721.89 15779.59c306.75,-283.19 535.05,-571.99 686.16,-876.49 148.23,-298.81 222.44,-613.7 223.9,-954.45 -366.85,247.17 -615.29,520.62 -760.85,826.78 -142.31,299.33 -187.21,632.16 -149.21,1004.16zm800.82 -819.88c-173.23,349.15 -441.69,676.98 -807.13,997.41l-88.44 77.53 -16.99 -116.57c-65.06,-445.75 -23.64,-841.93 145.26,-1197.21 168.53,-354.49 462.98,-665.89 904.15,-942.6l93.24 -58.49 4.67 110.05c17.15,406.75 -60.52,778.68 -234.76,1129.89z"/>
     <path class="fil7" d="M2704.91 15861.64c-118.62,-1083.9 -512.46,-1855.81 -1275.97,-2409.22 -59.16,1141.44 380.9,1880.99 1275.97,2409.22z"/>
     <path class="fil5" d="M2625.43 15737.74c-63.93,-478.27 -185.33,-892.09 -373.26,-1250.12 -185.85,-354.08 -437.6,-654.66 -763.79,-910.26 -10.28,504 83.44,924.26 276.8,1279.06 190.39,349.33 478.59,637.29 860.24,881.32zm-260.08 -1309.19c212.57,405 342.98,876.51 403.13,1426.32l13.87 126.78 -110.02 -64.94c-457.29,-269.9 -798.96,-594.82 -1019.35,-999.21 -220.21,-404.08 -318.08,-885.49 -287.87,-1468.31l6.07 -117.65 95.33 69.09c389.67,282.43 685.31,621.15 898.84,1027.93z"/>
     <path class="fil7" d="M2778.87 16850.29c649.33,-700.42 915.28,-1386.87 800.4,-2170.8 -800.68,625.96 -1015.66,1321.67 -800.4,2170.8z"/>
     <path class="fil5" d="M2813.63 16716.47c276,-313.44 473.4,-624.19 592.2,-942.57 116.5,-312.23 157.73,-633.12 123.97,-972.36 -339.23,283.59 -558.11,581.28 -671.35,900.95 -110.63,312.37 -120.94,647.93 -44.82,1013.99zm711.89 -898c-136.37,365.38 -369.58,719.13 -699.84,1075.4l-79.97 86.24 -28.96 -114.28c-110.66,-436.72 -110.38,-835.06 20.98,-1205.91 131,-369.82 391.82,-709.92 802.25,-1030.8l86.68 -67.83 15.97 108.91c59.01,402.64 20.05,780.64 -117.12,1148.27z"/>
     <path class="fil7" d="M2805.48 16800.39c-243.35,-1062.88 -723.93,-1783.99 -1546.39,-2245.26 73.41,1140.59 596.16,1824.23 1546.39,2245.26z"/>
     <path class="fil5" d="M2712.15 16686.48c-118.85,-467.49 -287.41,-864.4 -515.55,-1198.26 -225.71,-330.34 -510.49,-599.77 -863.95,-815.8 48.13,501.67 189.93,908.2 423.18,1238.35 229.57,324.98 549.11,577.62 956.31,775.71zm-409.84 -1270.36c257.97,377.53 442.08,830.78 565.52,1369.99l28.5 124.56 -116.67 -51.69c-485.7,-215.21 -862.77,-498.44 -1128.49,-874.57 -265.49,-375.77 -418.42,-842.64 -455.91,-1425.24l-7.55 -117.46 102.7 57.61c419.95,235.5 752.84,537.68 1011.89,916.81z"/>
     <path class="fil7" d="M3029.51 17722.33c548.36,-782.01 718.78,-1498.16 498.68,-2259.29 -708.42,728.75 -827.08,1447.18 -498.68,2259.29z"/>
     <path class="fil5" d="M3045.81 17585.22c230.87,-347.85 384.26,-682.62 458.88,-1014.4 73.15,-325.41 70.59,-648.9 -8.82,-980.23 -297.87,327.13 -474.44,651.72 -543.24,983.6 -67.24,324.62 -31.94,658.59 93.18,1011.04zm583.6 -986.34c-85.49,380.16 -268.57,762.13 -547.58,1160.03l-67.56 96.34 -44.11 -109.11c-168.84,-417.62 -222.56,-812.29 -142.71,-1197.49 79.7,-384.44 291.97,-756.8 654.93,-1130.19l76.6 -78.84 30.58 105.64c113.09,391.18 125.84,771.03 39.84,1153.62z"/>
     <path class="fil7" d="M3049.11 17669.28c-385.2,-1020.07 -959.13,-1669.36 -1836.53,-2014.85 227.38,1120.11 837.99,1726.55 1836.53,2014.85z"/>
     <path class="fil5" d="M2941.28 17569.24c-181.19,-447.28 -402,-817.8 -673.19,-1117.52 -268.44,-296.73 -587.21,-525.07 -966.88,-691.19 115.67,490.44 311.28,874.05 587.29,1169.68 271.59,290.95 622.46,497.92 1052.78,639.03zm-578.52 -1203.17c306.95,339.27 550.83,763.34 746.16,1280.69l45.05 119.31 -122.67 -35.41c-510.33,-147.38 -922.29,-376.78 -1236.44,-713.31 -313.9,-336.21 -528.67,-778.09 -644.85,-1350.37l-23.39 -115.13 109.26 43.02c447.96,176.38 818.73,430.62 1126.89,771.2z"/>
     <path class="fil7" d="M3367.27 18537.71c469.72,-831.61 569.69,-1560.97 276.62,-2297.06 -634.18,794.16 -682.44,1520.74 -276.62,2297.06z"/>
     <path class="fil5" d="M3370.1 18399.81c195.87,-368.46 315.92,-716.57 357.95,-1054.23 41.21,-331.21 7.26,-652.92 -103.88,-974.8 -264.62,354.54 -408.8,694.82 -445,1031.85 -35.41,329.72 32.16,658.71 190.92,997.19zm485.14 -1038.7c-48.09,386.45 -193.24,784.5 -432.4,1207.91l-57.8 102.29 -54.38 -104.05c-208.8,-399.49 -300.67,-787.11 -258.67,-1178.17 41.93,-390.28 216.95,-781.41 541.82,-1188.29l68.66 -86.02 40.75 102.31c150.7,378.49 200.38,755.21 152.01,1144.03z"/>
     <path class="fil7" d="M3381.61 18482.99c-482.56,-977.78 -1116.91,-1568.18 -2023.74,-1826.72 335.22,1092.68 1001.91,1636.88 2023.74,1826.72z"/>
     <path class="fil5" d="M3264.58 18393.91c-223.74,-427.36 -479.57,-774.52 -778.83,-1046.64 -296.05,-269.22 -635.41,-465.44 -1029.24,-593.88 162.84,476.83 394.79,839.47 698.06,1106.72 298.76,263.31 668.13,435.29 1110,533.8zm-692.67 -1141.31c338.24,307.57 622.16,705.98 867.02,1202.1l56.46 114.45 -125.32 -23.28c-522.52,-97.09 -954.88,-285.34 -1300.11,-589.6 -345.19,-304.21 -601.96,-723.04 -773.18,-1281.2l-34.58 -112.64 113.21 32.29c463.03,132 856.78,348.92 1196.5,657.87z"/>
     <path class="fil7" d="M3866.9 19520.66c391.64,-932.15 424.26,-1723.05 64.65,-2487.66 -558.95,906.01 -540.28,1689.52 -64.65,2487.66z"/>
     <path class="fil5" d="M3857.17 19374.2c161.37,-412.62 249.09,-796.46 259.94,-1161.96 10.67,-359.87 -53,-703.3 -193.81,-1040.46 -230.78,403.02 -343.06,780.8 -348.19,1146.24 -5.03,357.8 92.61,705.85 282.06,1056.18zm387.63 -1158.46c-12.41,418.39 -120.11,856.77 -318.8,1329.72l-49.11 116.83 -64.84 -108.83c-243.85,-409.2 -370.55,-815.64 -364.65,-1236.93 5.9,-420.66 144.06,-853.93 429.8,-1317.11l61.9 -100.39 50.27 106.89c184.11,391.5 267.85,789.93 255.42,1209.81z"/>
     <path class="fil7" d="M3873.61 19463.58c-548.41,-942.43 -1221.72,-1487.99 -2144.12,-1683.8 409.29,1067.17 1111.67,1564.42 2144.12,1683.8z"/>
     <path class="fil5" d="M3750.67 19382.61c-252.56,-411.18 -531.49,-740.05 -848.44,-990.85 -313.68,-248.2 -665.71,-420.74 -1067.54,-521.9 195.18,464.75 451.3,810.67 772.03,1056.41 315.92,242.06 696.19,388.29 1143.95,456.34zm-769.31 -1091c358.83,283.89 669.44,661.93 947.57,1139.94l64.19 110.28 -126.77 -14.64c-527.64,-61 -971.83,-219.27 -1337.28,-499.27 -365.44,-280.01 -650.39,-680.28 -859.41,-1225.32l-42.16 -109.84 115.29 24.46c470.78,99.91 878.42,289.4 1238.56,574.4z"/>
     <path class="fil7" d="M4344.99 20236.12c391.63,-932.15 424.25,-1723.05 64.64,-2487.67 -558.94,906.03 -540.28,1689.54 -64.64,2487.67z"/>
     <path class="fil5" d="M4335.24 20089.67c161.38,-412.58 249.09,-796.44 259.94,-1161.95 10.67,-359.87 -52.98,-703.32 -193.82,-1040.47 -230.8,403.08 -343.05,780.8 -348.19,1146.25 -5.02,357.8 92.62,705.84 282.06,1056.17zm387.63 -1158.46c-12.38,418.42 -120.1,856.8 -318.79,1329.73l-49.11 116.83 -64.85 -108.83c-243.84,-409.21 -370.54,-815.65 -364.64,-1236.93 5.89,-420.67 144.06,-853.91 429.79,-1317.12l61.91 -100.38 50.27 106.88c184.13,391.5 267.85,789.91 255.41,1209.81z"/>
     <path class="fil7" d="M4352.05 20181.15c-613.86,-783.27 -1290.89,-1192.13 -2149.32,-1253.6 503.72,913.48 1201,1275.01 2149.32,1253.6z"/>
     <path class="fil5" d="M4218.99 20117.69c-277.06,-334.99 -567.56,-593.87 -882.19,-778.92 -310.88,-182.89 -646.44,-294.11 -1017.19,-336.12 232.93,389.74 505.28,666.68 822.59,846.72 312.06,177.02 669.37,261.41 1076.79,268.32zm-817.57 -889.08c360.42,211.98 689.09,515.29 1000.95,913.24l78.56 100.26 -127.64 2.89c-485.59,10.96 -907.85,-76.64 -1274.16,-284.46 -366.32,-207.85 -674.73,-534.72 -932.5,-1002.16l-56.84 -103.06 117.46 8.41c439.05,31.42 832.1,151.9 1194.17,364.87z"/>
     <path class="fil7" d="M5073.77 21006.04c392.04,-617.55 44.8,-1846.7 -419.19,-2571.53 -431.02,949.94 -435.18,1877.69 419.19,2571.53z"/>
     <path class="fil5" d="M5056.22 20907.91c136.38,-264.62 150.81,-630.43 88.08,-1015.47 -74.98,-459.96 -259.95,-944.52 -480.16,-1319.81 -189.44,453.1 -275.28,897.78 -208.23,1309.14 60.82,373.31 248.55,721.43 600.32,1026.13zm214.28 -1035.98c72.64,445.67 45.74,871.59 -142.66,1168.42l-38.51 60.64 -55.87 -45.36c-415.63,-337.5 -634.73,-729.7 -703.75,-1153.35 -77.01,-472.25 33.65,-980.79 266.54,-1494.06l48.71 -107.4 63.46 99.13c256.06,399.99 477.22,951.21 562.09,1471.99z"/>
     <path class="fil7" d="M4920.15 20911.89c-683.66,-723.18 -1395.58,-1067.68 -2256.02,-1049.5 586.02,862.99 1313.74,1158.49 2256.02,1049.5z"/>
     <path class="fil5" d="M4781.57 20860.88c-306.85,-307.98 -619.95,-538.83 -950.19,-693.9 -326.72,-153.46 -671.28,-233.21 -1044.26,-240.77 267.86,366.48 564.85,617.06 897.7,767.08 326.98,147.41 690.47,198.37 1096.75,167.59zm-896.09 -809.6c378.63,177.81 733.94,449.42 1081.22,816.79l87.64 92.71 -126.95 14.69c-482.5,55.8 -911.08,7.59 -1295.14,-165.52 -383.68,-172.94 -720.95,-469.95 -1020.95,-911.74l-65.97 -97.16 117.55 -2.49c440.17,-9.31 842.66,74.26 1222.6,252.72z"/>
     <path class="fil7" d="M5848.61 21590.14c115.25,-988.46 -77.92,-1755.43 -644.46,-2403.29 -285.11,1003.43 -225.93,1888.28 644.46,2403.29z"/>
     <path class="fil5" d="M5795.79 21481.5c42.85,-445.24 19.83,-843.4 -75.59,-1204.45 -92.24,-349.15 -252.44,-664.64 -486.33,-955.44 -116.01,448.36 -156.9,868.9 -78.21,1236.75 78.3,366 276.71,681.78 640.13,923.14zm48.1 -1237.01c106.83,404.25 126.82,850.93 68.31,1352.91l-11.44 97.96 -84.71 -50.14c-452.23,-267.59 -693.93,-632.01 -785.57,-1060.3 -90.34,-422.14 -33.09,-904.36 112.1,-1415.33l32.2 -113.39 77.46 88.6c289.95,331.59 484.43,693.81 591.65,1099.7z"/>
     <path class="fil7" d="M5834.8 21597.3c-783.5,-613.59 -1538.71,-848.51 -2386.88,-702.72 707.7,766.36 1471.25,950.48 2386.88,702.72z"/>
     <path class="fil5" d="M5690.27 21567.43c-348.96,-258.75 -692.98,-440.49 -1042.93,-544.9 -345.74,-103.17 -698.19,-130.9 -1068,-82.99 319.36,322.58 650.14,526.29 1001.34,625.13 345.25,97.16 712.34,93.61 1109.6,2.77zm-1006.36 -667.63c400.36,119.46 791.99,335.31 1190.2,647.16l100.58 78.78 -123.36 33.4c-468.74,126.84 -899.7,142.82 -1305.21,28.69 -405.34,-114.07 -783.06,-357.71 -1145.27,-749.93l-79.85 -86.45 116.16 -19.95c433.93,-74.59 844.4,-51.74 1246.75,68.3z"/>
     <path class="fil7" d="M6690.79 22166.04c137.71,-829.13 -365.41,-1778.09 -989.18,-2371.03 -191.53,1025.41 20.19,1925.21 989.18,2371.03z"/>
     <path class="fil5" d="M6639.49 22070.28c38.94,-351.55 -35.98,-723.18 -183.44,-1076.73 -165.57,-396.85 -422.18,-770.13 -712.16,-1066.98 -75.98,485.21 -54.85,936.84 103.69,1316.88 142.17,340.84 396.26,625.59 791.9,826.83zm-65.23 -1125.8c168.04,402.85 246.34,830.18 179.64,1231.83l-13.77 82.74 -75.87 -34.89c-472.57,-217.42 -771.44,-539.92 -934.88,-931.63 -181.77,-435.74 -194.11,-955.27 -90.61,-1509.29l21.58 -115.67 85.34 81.09c337.16,320.53 639.8,743.33 828.58,1195.82z"/>
     <path class="fil7" d="M6551.49 22137.15c-836.64,-538.85 -1610.29,-703.25 -2441.44,-479.98 775.25,697.95 1552.52,810.99 2441.44,479.98z"/>
     <path class="fil5" d="M6404.84 22120.87c-371.44,-225.59 -730.67,-374.93 -1088.65,-446.67 -353.85,-70.92 -707.3,-66.08 -1071.11,15.62 347.81,291.93 695.89,464.29 1054.57,530.36 352.85,65 718.06,27.69 1105.19,-99.31zm-1063.62 -572.37c409.84,82.16 819.7,260.98 1244.84,534.8l107.33 69.14 -119.62 44.55c-455.28,169.55 -882.96,225.19 -1297.14,148.88 -414.26,-76.3 -812.75,-284.08 -1209.39,-641.13l-87.6 -78.85 113.88 -30.56c425.33,-114.25 836.15,-129.29 1247.69,-46.83z"/>
     <path class="fil7" d="M7638.1 22548.45c-133.47,-986.17 -682.95,-1777.16 -1392.45,-2264.28 -27.39,1042.79 225.83,1881.67 1392.45,2264.28z"/>
     <path class="fil5" d="M7559.01 22453.26c-71.33,-425.01 -222.14,-811.4 -430.07,-1149.56 -219.14,-356.33 -501.63,-658.93 -821.27,-896.59 -1.87,462.79 59.15,880.17 243.05,1226.97 186.23,351.13 501.01,632.57 1008.3,819.17zm-320.9 -1216.68c233.49,379.7 397.73,818.34 463.36,1303.37l13.68 101.11 -96.8 -31.75c-600.85,-197.05 -967.44,-513.3 -1180.81,-915.62 -211.51,-398.91 -269.66,-879.6 -255.72,-1411.04l3.08 -117.82 96.82 66.48c374.75,257.31 705.67,597.6 956.39,1005.27z"/>
     <path class="fil7" d="M7454.36 22462.92c-911.19,-400.14 -1701.06,-440.43 -2486.6,-88.86 875.65,566.93 1661,555.95 2486.6,88.86z"/>
     <path class="fil5" d="M7307.03 22469.92c-402.57,-164.26 -780.91,-255.1 -1145.6,-269.45 -360.6,-14.21 -708.96,46.29 -1055.45,184.48 389.55,233.42 760.58,348.8 1125.35,357.47 358.64,8.5 713.39,-85.97 1075.7,-272.5zm-1140.58 -397.15c417.83,16.43 850.68,128.35 1313.44,331.56l116.97 51.36 -110.98 62.83c-422.77,239.21 -836.37,361.59 -1257.57,351.59 -420.95,-10.02 -847.24,-152.36 -1295.35,-442.44l-98.66 -63.87 107.4 -48.05c401.92,-179.87 805.21,-259.51 1224.75,-242.97z"/>
     <path class="fil7" d="M8423.43 22721.26c-242.32,-965.21 -694.59,-1614.04 -1453.87,-2019.24 88.75,1039.36 526.98,1849.75 1453.87,2019.24z"/>
     <path class="fil5" d="M8335.25 22637.15c-117.57,-431.03 -280.08,-794.88 -496.98,-1098.47 -209.83,-293.72 -471.23,-531.87 -792.8,-720.95 55.37,484.44 191.74,911.26 424.23,1234.24 207.13,287.7 492,493.8 865.55,585.18zm-392.82 -1172.57c243.1,340.26 420.06,750.93 543.1,1241.16l24.16 96.24 -97.77 -17.87c-458.13,-83.76 -801.64,-318.34 -1045.84,-657.52 -266.29,-369.85 -412.85,-863.13 -460.35,-1419.32l-10 -117.05 103.9 55.46c388.58,207.39 698.76,477.27 942.81,818.91z"/>
     <path class="fil7" d="M8413.06 22732.84c-950.02,-296.33 -1739.48,-248.54 -2481.06,188.21 933.26,466.02 1712.54,367.78 2481.06,-188.21z"/>
     <path class="fil5" d="M8267.2 22756.2c-418.19,-118.41 -804.22,-166.56 -1168.32,-140.31 -359.99,25.95 -699.37,124.83 -1028.16,300.49 412.98,188.6 794.49,261.92 1158.06,229.98 357.33,-31.39 699.26,-164.67 1038.42,-390.16zm-1177.34 -268c416.92,-30.08 859.59,33.02 1342.21,183.54l122 38.04 -103.46 74.88c-393.7,284.82 -791.19,452.54 -1210.81,489.4 -419.34,36.84 -858.75,-57.18 -1336.34,-295.68l-105.34 -52.62 101.56 -59.79c379.57,-223.52 771.52,-347.6 1190.18,-377.77z"/>
    </g>
    <g>
     <path class="fil6" d="M13699.99 9591.67c5520.66,4103 2163.12,12327.39 -2975.08,13127.02 -942.96,146.67 -1516.96,-178.26 -2254.05,664.67"/>
     <path class="fil5" d="M13661.93 9643c1629.66,1211.17 2478.62,2784.27 2732.67,4416.93 162.31,1042.94 82.02,2111.02 -192.42,3125.23 -274.51,1014.52 -743.31,1974.74 -1357.87,2801.64 -1038.63,1397.48 -2493.23,2414.2 -4129.16,2668.78 -265.09,41.23 -502.06,44.62 -721.42,47.71 -569.79,8.09 -1025.84,14.63 -1570.93,637.99l96.16 84.16c507.71,-580.64 938.31,-586.8 1476.26,-594.44 223.84,-3.17 465.7,-6.61 739.46,-49.2 1670.94,-260.05 3154.65,-1295.77 4212.3,-2718.89 624.16,-839.83 1100.24,-1814.78 1378.91,-2844.66 278.77,-1030.2 360.12,-2116.2 194.92,-3177.84 -258.95,-1664.07 -1123.49,-3266.9 -2782.77,-4500.06l-76.1 102.67z"/>
     <path class="fil7" d="M15625.38 11563.61c-1006.81,-448.75 -1628.31,-1066.15 -1925.39,-1971.93 1117.06,295.37 1693.16,947.25 1925.39,1971.93z"/>
     <path class="fil5" d="M15531.82 11450.23c-441.29,-209.31 -802.64,-454.21 -1089.69,-746.04 -284.05,-288.78 -495.98,-624.36 -641.37,-1017.78 489.06,145.69 865.17,365.75 1147.43,661.8 278.11,291.72 466.56,658.6 583.63,1102.01zm-1180.82 -656.4c324.07,329.47 737.67,600.44 1248.37,828.09l116.62 51.97 -28.21 -124.33c-118.69,-523.67 -325.96,-952.81 -646.94,-1289.5 -320.98,-336.67 -754.18,-579.41 -1324.58,-730.25l-113.77 -30.06 36.64 111.69c151.7,462.47 386.42,851.55 711.86,1182.38z"/>
     <path class="fil7" d="M15759.61 11831.42c-895.75,-54.54 -1545.93,-347.7 -2031.13,-953.42 935.98,-93.88 1561.4,238.56 2031.13,953.42z"/>
     <path class="fil5" d="M15631.26 11757.61c-384.09,-34.77 -719.88,-117.38 -1014.39,-254.31 -290.47,-135.04 -541.47,-323.44 -759.88,-571.56 401.87,-24.56 741.9,35.87 1034.08,177.29 286.67,138.77 529.01,356.31 740.19,648.59zm-1067.99 -138.1c342.48,159.2 736.59,248 1192.59,275.77l127.15 7.76 -70.09 -106.65c-241.24,-367.19 -523.33,-636.58 -866.26,-802.54 -342.7,-165.89 -744.32,-227.57 -1224.45,-179.42l-117.15 11.77 73.58 91.87c248.87,310.7 540.36,541.39 884.61,701.44z"/>
     <path class="fil7" d="M15768.14 11820.29c-420.36,-792.86 -509.06,-1500.54 -245.06,-2230.33 568,749.83 610.29,1456.85 245.06,2230.33z"/>
     <path class="fil5" d="M15764.15 11672.14c-170.46,-345.84 -274.97,-675.34 -311.58,-997.68 -36.16,-318.49 -6.24,-631.02 91.63,-946.7 230.55,330.28 356.21,651.8 387.78,974.5 30.97,316.85 -28.36,637.1 -167.83,969.87zm-438.76 -983.67c42.63,375.54 172.27,758.22 386.15,1161.63l59.94 112.99 54.51 -115.51c187.48,-397.05 270.29,-778.1 233.18,-1157.31 -37.1,-379.36 -193.78,-754.36 -485,-1138.85l-71.13 -93.9 -40.06 110.67c-135.43,374.38 -180.4,743.31 -137.58,1120.29z"/>
     <path class="fil7" d="M16199.97 12880.18c-881.01,-314.4 -1408.83,-774.67 -1632.36,-1472.24 987.01,190.45 1472.52,679.35 1632.36,1472.24z"/>
     <path class="fil5" d="M16111.6 12779.13c-382.02,-146.82 -691.18,-323.7 -931.82,-538.95 -233.65,-209.04 -403.79,-455.26 -514.56,-746.52 426.62,95.92 749.54,252.89 985.42,471.3 228.62,211.7 377.15,482.99 460.95,814.16zm-1016.95 -443.83c276.7,247.55 635.87,445.38 1083.78,605.27l106.48 38.03 -22.35 -110.9c-82.57,-409.64 -250.08,-741.52 -525.29,-996.37 -273.77,-253.47 -652.21,-428.72 -1157.68,-526.23l-105.8 -20.41 32.92 102.79c115.27,359.76 309.19,658.48 587.93,907.83z"/>
     <path class="fil7" d="M16160.18 12901.13c-363.13,-1028.13 -342.95,-1894.49 105.06,-2724.23 548.27,1002.87 472.43,1860.1 -105.06,2724.23z"/>
     <path class="fil5" d="M16178.16 12755.07c-149.82,-458.8 -219.84,-884.35 -205.76,-1288.44 13.9,-399.72 110.41,-779.69 293.46,-1151.45 227.8,449.71 325.57,869.04 305.19,1272.88 -20.06,397.4 -154.85,781.76 -392.88,1167.01zm-333.45 -1292.44c-15.93,457.11 71.02,938.39 255.15,1459.78l42.54 120.42 70.9 -106.13c295.15,-441.67 462.2,-882.7 485.43,-1342.63 23.21,-459.41 -97.39,-935.51 -377.39,-1447.67l-56.48 -103.33 -55.95 103.56c-228.67,423.54 -348.23,856.9 -364.21,1316.01z"/>
     <path class="fil7" d="M16416.01 13917.73c-812.41,-463.69 -1251.56,-1009.21 -1349.61,-1735.13 938.47,360.21 1330.97,926.5 1349.61,1735.13z"/>
     <path class="fil5" d="M16346.67 13802.98c-350.2,-211.26 -623.63,-439.49 -823.06,-693.79 -193.56,-246.8 -318.02,-519.12 -376.1,-825.3 402.89,169.01 693.29,380.08 887.53,636.67 188.21,248.68 287.11,541.84 311.64,882.42zm-923.73 -615.18c228.93,291.93 548.11,549.59 961.53,785.54l98 55.96 -2.62 -112.8c-9.65,-418.05 -116.48,-774.21 -342.67,-1073.06 -224.93,-297.13 -566.98,-535.78 -1048.03,-720.44l-100.56 -38.58 14.41 106.68c50.57,374.45 189.2,702.5 419.94,996.71z"/>
     <path class="fil7" d="M16373.18 13931.39c-177.66,-1075.81 -6.22,-1925.27 580.05,-2663.84 364.35,1083.33 139.7,1914.08 -580.05,2663.84z"/>
     <path class="fil5" d="M16416.37 13790.73c-67.21,-477.67 -61.61,-908.91 22.94,-1304.42 83.69,-391.32 245.11,-748.59 490.31,-1082.44 145.57,482.52 168.47,912.45 77.75,1306.41 -89.3,387.87 -289.27,742.81 -590.99,1080.45zm-102.23 -1330.99c-95.59,447.01 -94.15,936.16 -4.06,1481.91l20.85 126.11 88.33 -92.04c367.88,-383.24 609.52,-788.19 712.83,-1236.88 103.22,-448.29 67.79,-938.24 -118.29,-1491.56l-37.54 -111.63 -73.12 92.1c-299.41,377.17 -492.98,782.98 -589.01,1231.98z"/>
     <path class="fil7" d="M16512.76 14876.37c-812.42,-502.2 -1251.58,-1093.03 -1349.63,-1879.24 938.47,390.12 1330.98,1003.45 1349.63,1879.24z"/>
     <path class="fil5" d="M16443.76 14756.85c-349.34,-228.48 -622.36,-475.62 -821.91,-751.18 -195.5,-269.95 -320.7,-568.16 -378.5,-903.9 402.75,183.07 693.04,411.66 887.16,689.4 189.93,271.73 289.18,592.5 313.24,965.68zm-925.55 -676.04c228.47,315.51 547.44,594.31 960.98,849.93l99.94 61.74 -2.53 -117.33c-9.61,-450.6 -115.99,-834.54 -341.41,-1157.09 -224.93,-321.81 -566.8,-580.21 -1047.54,-780.06l-101.74 -42.28 13.62 109.15c50.41,404.06 188.59,758.21 418.69,1075.94z"/>
     <path class="fil7" d="M16471.06 14892.01c-32.62,-1089.9 250.57,-1908.91 930.07,-2562.7 216.65,1122.23 -116.76,1915.61 -930.07,2562.7z"/>
     <path class="fil5" d="M16532.57 14758.37c-2.89,-482.5 60.06,-909.14 196.6,-1289.7 135.07,-376.57 342.72,-709.14 630.3,-1007.39 79.96,497.75 45.4,926.85 -96.99,1305.04 -140.21,372.44 -385.75,697.56 -729.92,992.06zm76.39 -1332.77c-154.43,430.46 -218.26,915.39 -201.72,1468.16l3.84 127.77 99.82 -79.44c415.59,-330.69 709.07,-699.8 871.27,-1130.7 162.17,-430.75 192.4,-921.03 81.79,-1494.08l-22.34 -115.67 -84.85 81.61c-346.9,333.77 -592.76,710.05 -747.82,1142.35z"/>
     <path class="fil7" d="M16433.02 15909.01c-718.13,-629.7 -1053.47,-1285.04 -1020.09,-2076.65 860.98,540.02 1146.6,1209.84 1020.09,2076.65z"/>
     <path class="fil5" d="M16384.62 15779.59c-306.75,-283.19 -535.05,-571.99 -686.15,-876.49 -148.24,-298.81 -222.44,-613.7 -223.9,-954.45 366.85,247.17 615.29,520.62 760.85,826.78 142.31,299.33 187.21,632.16 149.2,1004.16zm-800.82 -819.88c173.23,349.15 441.69,676.98 807.13,997.41l88.44 77.53 17.01 -116.57c65.05,-445.75 23.64,-841.93 -145.26,-1197.21 -168.55,-354.49 -462.98,-665.89 -904.17,-942.6l-93.23 -58.49 -4.66 110.05c-17.15,406.75 60.51,778.68 234.74,1129.89z"/>
     <path class="fil7" d="M16401.61 15861.64c118.61,-1083.9 512.47,-1855.81 1275.97,-2409.22 59.17,1141.44 -380.9,1880.99 -1275.97,2409.22z"/>
     <path class="fil5" d="M16481.09 15737.74c63.93,-478.27 185.34,-892.09 373.27,-1250.12 185.83,-354.08 437.59,-654.66 763.77,-910.26 10.28,504 -83.43,924.26 -276.8,1279.06 -190.39,349.33 -478.59,637.29 -860.23,881.32zm260.08 -1309.19c-212.56,405 -342.99,876.51 -403.13,1426.32l-13.88 126.78 110.03 -64.94c457.28,-269.9 798.96,-594.82 1019.35,-999.21 220.2,-404.08 318.08,-885.49 287.87,-1468.31l-6.08 -117.65 -95.33 69.09c-389.66,282.43 -685.31,621.15 -898.83,1027.93z"/>
     <path class="fil7" d="M16327.64 16850.29c-649.33,-700.42 -915.28,-1386.87 -800.4,-2170.8 800.68,625.96 1015.66,1321.67 800.4,2170.8z"/>
     <path class="fil5" d="M16292.88 16716.47c-276,-313.44 -473.39,-624.19 -592.19,-942.57 -116.51,-312.23 -157.74,-633.12 -123.97,-972.36 339.24,283.59 558.11,581.28 671.34,900.95 110.64,312.37 120.94,647.93 44.82,1013.99zm-711.88 -898c136.37,365.38 369.57,719.13 699.83,1075.4l79.97 86.24 28.96 -114.28c110.67,-436.72 110.38,-835.06 -20.98,-1205.91 -131,-369.82 -391.82,-709.92 -802.23,-1030.8l-86.69 -67.83 -15.98 108.91c-59,402.64 -20.05,780.64 117.13,1148.27z"/>
     <path class="fil7" d="M16301.04 16800.39c243.34,-1062.88 723.93,-1783.99 1546.38,-2245.26 -73.41,1140.59 -596.16,1824.23 -1546.38,2245.26z"/>
     <path class="fil5" d="M16394.36 16686.48c118.85,-467.49 287.41,-864.4 515.55,-1198.26 225.72,-330.34 510.49,-599.77 863.95,-815.8 -48.12,501.67 -189.92,908.2 -423.18,1238.35 -229.56,324.98 -549.09,577.62 -956.31,775.71zm409.86 -1270.36c-257.98,377.53 -442.1,830.78 -565.53,1369.99l-28.51 124.56 116.67 -51.69c485.7,-215.21 862.77,-498.44 1128.49,-874.57 265.5,-375.77 418.42,-842.64 455.91,-1425.24l7.57 -117.46 -102.72 57.61c-419.95,235.5 -752.82,537.68 -1011.87,916.81z"/>
     <path class="fil7" d="M16077 17722.33c-548.35,-782.01 -718.78,-1498.16 -498.67,-2259.29 708.41,728.75 827.08,1447.18 498.67,2259.29z"/>
     <path class="fil5" d="M16060.7 17585.22c-230.87,-347.85 -384.26,-682.62 -458.87,-1014.4 -73.15,-325.41 -70.6,-648.9 8.82,-980.23 297.88,327.13 474.43,651.72 543.23,983.6 67.26,324.62 31.94,658.59 -93.18,1011.04zm-583.6 -986.34c85.5,380.16 268.57,762.13 547.58,1160.03l67.56 96.34 44.11 -109.11c168.85,-417.62 222.56,-812.29 142.72,-1197.49 -79.7,-384.44 -291.98,-756.8 -654.93,-1130.19l-76.61 -78.84 -30.57 105.64c-113.1,391.18 -125.84,771.03 -39.85,1153.62z"/>
     <path class="fil7" d="M16057.42 17669.28c385.19,-1020.07 959.12,-1669.36 1836.52,-2014.85 -227.39,1120.11 -837.99,1726.55 -1836.52,2014.85z"/>
     <path class="fil5" d="M16165.23 17569.24c181.19,-447.28 402.01,-817.8 673.19,-1117.52 268.44,-296.73 587.22,-525.07 966.88,-691.19 -115.67,490.44 -311.28,874.05 -587.29,1169.68 -271.58,290.95 -622.46,497.92 -1052.78,639.03zm578.52 -1203.17c-306.95,339.27 -550.81,763.34 -746.15,1280.69l-45.05 119.31 122.66 -35.41c510.34,-147.38 922.29,-376.78 1236.45,-713.31 313.9,-336.21 528.66,-778.09 644.85,-1350.37l23.38 -115.13 -109.26 43.02c-447.95,176.38 -818.73,430.62 -1126.89,771.2z"/>
     <path class="fil7" d="M15739.25 18537.71c-469.73,-831.61 -569.7,-1560.97 -276.63,-2297.06 634.2,794.16 682.45,1520.74 276.63,2297.06z"/>
     <path class="fil5" d="M15736.42 18399.81c-195.87,-368.46 -315.93,-716.57 -357.95,-1054.23 -41.21,-331.21 -7.26,-652.92 103.87,-974.8 264.62,354.54 408.8,694.82 445,1031.85 35.41,329.72 -32.15,658.71 -190.92,997.19zm-485.13 -1038.7c48.07,386.45 193.22,784.5 432.38,1207.91l57.8 102.29 54.39 -104.05c208.79,-399.49 300.66,-787.11 258.67,-1178.17 -41.92,-390.28 -216.96,-781.41 -541.83,-1188.29l-68.66 -86.02 -40.75 102.31c-150.69,378.49 -200.38,755.21 -151.99,1144.03z"/>
     <path class="fil7" d="M15724.91 18482.99c482.55,-977.78 1116.91,-1568.18 2023.73,-1826.72 -335.22,1092.68 -1001.91,1636.88 -2023.73,1826.72z"/>
     <path class="fil5" d="M15841.93 18393.91c223.74,-427.36 479.57,-774.52 778.83,-1046.64 296.06,-269.22 635.42,-465.44 1029.25,-593.88 -162.85,476.83 -394.8,839.47 -698.06,1106.72 -298.77,263.31 -668.14,435.29 -1110.01,533.8zm692.67 -1141.31c-338.23,307.57 -622.16,705.98 -867,1202.1l-56.46 114.45 125.31 -23.28c522.51,-97.09 954.87,-285.34 1300.11,-589.6 345.18,-304.21 601.95,-723.04 773.19,-1281.2l34.56 -112.64 -113.21 32.29c-463.03,132 -856.78,348.92 -1196.5,657.87z"/>
     <path class="fil7" d="M15239.62 19520.66c-391.63,-932.15 -424.26,-1723.05 -64.65,-2487.66 558.95,906.01 540.28,1689.52 64.65,2487.66z"/>
     <path class="fil5" d="M15249.36 19374.2c-161.39,-412.62 -249.1,-796.46 -259.95,-1161.96 -10.67,-359.87 53,-703.3 193.83,-1040.46 230.76,403.02 343.04,780.8 348.18,1146.24 5.03,357.8 -92.62,705.85 -282.05,1056.18zm-387.65 -1158.46c12.42,418.39 120.11,856.77 318.8,1329.72l49.11 116.83 64.84 -108.83c243.86,-409.2 370.55,-815.64 364.65,-1236.93 -5.9,-420.66 -144.05,-853.93 -429.8,-1317.11l-61.89 -100.39 -50.28 106.89c-184.11,391.5 -267.84,789.93 -255.42,1209.81z"/>
     <path class="fil7" d="M15232.9 19463.58c548.42,-942.43 1221.72,-1487.99 2144.12,-1683.8 -409.28,1067.17 -1111.67,1564.42 -2144.12,1683.8z"/>
     <path class="fil5" d="M15355.84 19382.61c252.56,-411.18 531.5,-740.05 848.44,-990.85 313.68,-248.2 665.73,-420.74 1067.55,-521.9 -195.18,464.75 -451.31,810.67 -772.03,1056.41 -315.93,242.06 -696.19,388.29 -1143.96,456.34zm769.31 -1091c-358.81,283.89 -669.44,661.93 -947.57,1139.94l-64.19 110.28 126.79 -14.64c527.64,-61 971.83,-219.27 1337.26,-499.27 365.44,-280.01 650.4,-680.28 859.42,-1225.32l42.16 -109.84 -115.28 24.46c-470.8,99.91 -878.42,289.4 -1238.58,574.4z"/>
     <path class="fil7" d="M14761.52 20236.12c-391.62,-932.15 -424.25,-1723.05 -64.64,-2487.67 558.95,906.03 540.28,1689.54 64.64,2487.67z"/>
     <path class="fil5" d="M14771.28 20089.67c-161.38,-412.58 -249.1,-796.44 -259.95,-1161.95 -10.67,-359.87 52.98,-703.32 193.83,-1040.47 230.79,403.08 343.04,780.8 348.18,1146.25 5.04,357.8 -92.61,705.84 -282.05,1056.17zm-387.64 -1158.46c12.39,418.42 120.1,856.8 318.79,1329.73l49.11 116.83 64.85 -108.83c243.85,-409.21 370.54,-815.65 364.65,-1236.93 -5.9,-420.67 -144.06,-853.91 -429.8,-1317.12l-61.89 -100.38 -50.29 106.88c-184.13,391.5 -267.84,789.91 -255.41,1209.81z"/>
     <path class="fil7" d="M14754.48 20181.15c613.85,-783.27 1290.88,-1192.13 2149.31,-1253.6 -503.71,913.48 -1201,1275.01 -2149.31,1253.6z"/>
     <path class="fil5" d="M14887.54 20117.69c277.05,-334.99 567.54,-593.87 882.18,-778.92 310.87,-182.89 646.45,-294.11 1017.19,-336.12 -232.92,389.74 -505.28,666.68 -822.6,846.72 -312.05,177.02 -669.36,261.41 -1076.77,268.32zm817.57 -889.08c-360.42,211.98 -689.09,515.29 -1000.97,913.24l-78.56 100.26 127.65 2.89c485.58,10.96 907.85,-76.64 1274.16,-284.46 366.31,-207.85 674.73,-534.72 932.49,-1002.16l56.84 -103.06 -117.46 8.41c-439.06,31.42 -832.11,151.9 -1194.16,364.87z"/>
     <path class="fil7" d="M14032.74 21006.04c-392.03,-617.55 -44.8,-1846.7 419.21,-2571.53 431.01,949.94 435.16,1877.69 -419.21,2571.53z"/>
     <path class="fil5" d="M14050.3 20907.91c-136.39,-264.62 -150.82,-630.43 -88.08,-1015.47 74.98,-459.96 259.95,-944.52 480.15,-1319.81 189.44,453.1 275.28,897.78 208.24,1309.14 -60.82,373.31 -248.54,721.43 -600.32,1026.13zm-214.29 -1035.98c-72.64,445.67 -45.74,871.59 142.67,1168.42l38.52 60.64 55.87 -45.36c415.61,-337.5 634.72,-729.7 703.75,-1153.35 77,-472.25 -33.67,-980.79 -266.56,-1494.06l-48.7 -107.4 -63.47 99.13c-256.05,399.99 -477.22,951.21 -562.09,1471.99z"/>
     <path class="fil7" d="M14186.36 20911.89c683.66,-723.18 1395.6,-1067.68 2256.03,-1049.5 -586.03,862.99 -1313.75,1158.49 -2256.03,1049.5z"/>
     <path class="fil5" d="M14324.94 20860.88c306.85,-307.98 619.95,-538.83 950.19,-693.9 326.73,-153.46 671.28,-233.21 1044.27,-240.77 -267.87,366.48 -564.86,617.06 -897.7,767.08 -326.99,147.41 -690.46,198.37 -1096.76,167.59zm896.09 -809.6c-378.61,177.81 -733.93,449.42 -1081.21,816.79l-87.64 92.71 126.95 14.69c482.49,55.8 911.09,7.59 1295.14,-165.52 383.67,-172.94 720.95,-469.95 1020.95,-911.74l65.98 -97.16 -117.57 -2.49c-440.15,-9.31 -842.66,74.26 -1222.6,252.72z"/>
     <path class="fil7" d="M13257.91 21590.14c-115.24,-988.46 77.92,-1755.43 644.45,-2403.29 285.13,1003.43 225.93,1888.28 -644.45,2403.29z"/>
     <path class="fil5" d="M13310.73 21481.5c-42.84,-445.24 -19.82,-843.4 75.58,-1204.45 92.24,-349.15 252.44,-664.64 486.34,-955.44 116,448.36 156.9,868.9 78.21,1236.75 -78.3,366 -276.72,681.78 -640.13,923.14zm-48.11 -1237.01c-106.82,404.25 -126.82,850.93 -68.3,1352.91l11.44 97.96 84.71 -50.14c452.23,-267.59 693.93,-632.01 785.56,-1060.3 90.34,-422.14 33.09,-904.36 -112.1,-1415.33l-32.2 -113.39 -77.46 88.6c-289.95,331.59 -484.41,693.81 -591.65,1099.7z"/>
     <path class="fil7" d="M13271.71 21597.3c783.5,-613.59 1538.71,-848.51 2386.9,-702.72 -707.72,766.36 -1471.26,950.48 -2386.9,702.72z"/>
     <path class="fil5" d="M13416.24 21567.43c348.98,-258.75 692.98,-440.49 1042.93,-544.9 345.74,-103.17 698.19,-130.9 1068.01,-82.99 -319.36,322.58 -650.13,526.29 -1001.35,625.13 -345.25,97.16 -712.33,93.61 -1109.6,2.77zm1006.36 -667.63c-400.36,119.46 -791.97,335.31 -1190.18,647.16l-100.6 78.78 123.36 33.4c468.75,126.84 899.7,142.82 1305.22,28.69 405.34,-114.07 783.05,-357.71 1145.27,-749.93l79.84 -86.45 -116.15 -19.95c-433.93,-74.59 -844.4,-51.74 -1246.76,68.3z"/>
     <path class="fil7" d="M12415.72 22166.04c-137.7,-829.13 365.42,-1778.09 989.18,-2371.03 191.53,1025.41 -20.19,1925.21 -989.18,2371.03z"/>
     <path class="fil5" d="M12467.03 22070.28c-38.95,-351.55 35.97,-723.18 183.44,-1076.73 165.56,-396.85 422.19,-770.13 712.16,-1066.98 75.97,485.21 54.85,936.84 -103.69,1316.88 -142.18,340.84 -396.26,625.59 -791.9,826.83zm65.23 -1125.8c-168.05,402.85 -246.34,830.18 -179.64,1231.83l13.76 82.74 75.87 -34.89c472.58,-217.42 771.45,-539.92 934.88,-931.63 181.77,-435.74 194.11,-955.27 90.61,-1509.29l-21.58 -115.67 -85.34 81.09c-337.15,320.53 -639.8,743.33 -828.57,1195.82z"/>
     <path class="fil7" d="M12555.02 22137.15c836.66,-538.85 1610.29,-703.25 2441.46,-479.98 -775.26,697.95 -1552.52,810.99 -2441.46,479.98z"/>
     <path class="fil5" d="M12701.67 22120.87c371.44,-225.59 730.68,-374.93 1088.65,-446.67 353.86,-70.92 707.3,-66.08 1071.13,15.62 -347.83,291.93 -695.91,464.29 -1054.59,530.36 -352.85,65 -718.05,27.69 -1105.19,-99.31zm1063.62 -572.37c-409.84,82.16 -819.7,260.98 -1244.82,534.8l-107.34 69.14 119.61 44.55c455.3,169.55 882.96,225.19 1297.15,148.88 414.25,-76.3 812.75,-284.08 1209.4,-641.13l87.59 -78.85 -113.87 -30.56c-425.34,-114.25 -836.17,-129.29 -1247.71,-46.83z"/>
     <path class="fil7" d="M11468.42 22548.45c133.48,-986.17 682.94,-1777.16 1392.44,-2264.28 27.39,1042.79 -225.83,1881.67 -1392.44,2264.28z"/>
     <path class="fil5" d="M11547.51 22453.26c71.34,-425.01 222.13,-811.4 430.08,-1149.56 219.12,-356.33 501.61,-658.93 821.25,-896.59 1.87,462.79 -59.15,880.17 -243.05,1226.97 -186.23,351.13 -501,632.57 -1008.29,819.17zm320.9 -1216.68c-233.5,379.7 -397.72,818.34 -463.37,1303.37l-13.66 101.11 96.78 -31.75c600.85,-197.05 967.45,-513.3 1180.82,-915.62 211.5,-398.91 269.67,-879.6 255.71,-1411.04l-3.08 -117.82 -96.82 66.48c-374.75,257.31 -705.67,597.6 -956.38,1005.27z"/>
     <path class="fil7" d="M11652.16 22462.92c911.18,-400.14 1701.06,-440.43 2486.61,-88.86 -875.66,566.93 -1661.02,555.95 -2486.61,88.86z"/>
     <path class="fil5" d="M11799.48 22469.92c402.57,-164.26 780.91,-255.1 1145.61,-269.45 360.59,-14.21 708.96,46.29 1055.44,184.48 -389.54,233.42 -760.58,348.8 -1125.34,357.47 -358.65,8.5 -713.4,-85.97 -1075.71,-272.5zm1140.58 -397.15c-417.82,16.43 -850.68,128.35 -1313.42,331.56l-116.97 51.36 110.97 62.83c422.78,239.21 836.37,361.59 1257.58,351.59 420.95,-10.02 847.23,-152.36 1295.34,-442.44l98.67 -63.87 -107.41 -48.05c-401.9,-179.87 -805.21,-259.51 -1224.75,-242.97z"/>
     <path class="fil7" d="M10683.1 22721.26c242.3,-965.21 694.59,-1614.04 1453.85,-2019.24 -88.75,1039.36 -526.98,1849.75 -1453.85,2019.24z"/>
     <path class="fil5" d="M10771.27 22637.15c117.56,-431.03 280.09,-794.88 496.99,-1098.47 209.81,-293.72 471.23,-531.87 792.8,-720.95 -55.39,484.44 -191.75,911.26 -424.24,1234.24 -207.14,287.7 -492,493.8 -865.55,585.18zm392.82 -1172.57c-243.1,340.26 -420.05,750.93 -543.11,1241.16l-24.16 96.24 97.77 -17.87c458.14,-83.76 801.66,-318.34 1045.86,-657.52 266.29,-369.85 412.85,-863.13 460.34,-1419.32l9.99 -117.05 -103.9 55.46c-388.57,207.39 -698.75,477.27 -942.8,818.91z"/>
     <path class="fil7" d="M10693.46 22732.84c950.03,-296.33 1739.5,-248.54 2481.07,188.21 -933.27,466.02 -1712.53,367.78 -2481.07,-188.21z"/>
     <path class="fil5" d="M10839.32 22756.2c418.19,-118.41 804.22,-166.56 1168.31,-140.31 359.99,25.95 699.37,124.83 1028.17,300.49 -412.98,188.6 -794.5,261.92 -1158.06,229.98 -357.34,-31.39 -699.26,-164.67 -1038.42,-390.16zm1177.35 -268c-416.93,-30.08 -859.6,33.02 -1342.22,183.54l-122 38.04 103.46 74.88c393.7,284.82 791.19,452.54 1210.8,489.4 419.34,36.84 858.75,-57.18 1336.36,-295.68l105.33 -52.62 -101.57 -59.79c-379.56,-223.52 -771.51,-347.6 -1190.16,-377.77z"/>
    </g>
   </g>
   <g>
    <polygon class="fil0 str0" points="3072.38,4738.52 2993.23,4651.96 2931,4607.97 2866.61,4580.06 2771.09,4556.46 2677.74,4542.52 2480.82,4533.91 1840.31,4533.91 1839.78,6629.8 2455.77,6629.8 2703.68,6629.8 2879.17,6613.73 2972.51,6595.06 3026.64,6572.66 3061.18,6552.11 3094.79,6524.11 3112.52,6505.44 3135.86,6471.84 3153.59,6435.44 3172.26,6378.5 3187.19,6310.37 3194.66,6228.23 3196.53,5928.6 3192.79,5835.27 3186.25,5798.86 3172.26,5738.2 3155.45,5696.18 3132.13,5648.58 3111.58,5621.51 3079.85,5593.52 3046.24,5568.31 3018.25,5551.52 2971.57,5531.92 2917.44,5513.24 2851.18,5496.43 2943.58,5473.11 3015.44,5443.23 3061.18,5415.23 3083.58,5397.5 3096.65,5383.5 3120.91,5342.42 3137.72,5291.09 3149.86,5238.82 3154.53,5146.41 3154.53,5072.68 3145.2,4938.27 3108.78,4809.45 "/>
    <path class="fil1" d="M2505.77 5355.35c44.03,-3.45 73.46,-16.72 84.91,-42.15 2.14,-6.1 4.27,-12.21 6.41,-18.32l6.11 -31.45 4.28 -32.07 2.13 -37.57 2.14 -48.24 0 -67.18 -0.32 -34.52 -5.19 -44.27 -4.57 -24.44 -5.5 -16.79 -8.55 -16.19 -9.16 -13.74 -7.03 -7.02 -7.64 -7.34 -10.68 -6.72 -10.99 -4.57 -18.94 -3.66 -33.89 -4.59 -64.36 -2.83 -0.81 465.3 26.38 -0.41c18.43,-0.4 36.85,-0.8 55.27,-1.21z"/>
    <path class="fil1" d="M2508.65 6264.33c44.03,-4.25 73.46,-20.61 84.91,-51.99 2.14,-7.52 4.27,-15.06 6.41,-22.59l6.11 -38.79 4.28 -39.56 2.13 -46.34 2.14 -59.51 0 -82.88 -0.32 -42.56 -5.19 -54.61 -4.57 -30.15 -5.5 -20.71 -8.55 -19.97 -9.16 -16.95 -7.03 -8.65 -7.64 -9.06 -10.68 -8.28 -10.99 -5.65 -18.94 -4.52 -33.89 -5.65 -64.36 -3.5 -0.81 573.93 26.38 -0.5c18.43,-0.51 36.85,-1 55.27,-1.51z"/>
    <polygon class="fil0 str0" points="3909.37,6253.67 3878,6629.8 3272.82,6629.8 3570.51,4532.56 4411.91,4533.96 4748.75,6629.8 4153.35,6629.8 4119.79,6254.46 "/>
    <polygon class="fil0 str0" points="7828.26,6246.29 7796.89,6622.43 7191.7,6622.43 7489.41,4525.18 8330.79,4526.58 8667.63,6622.43 8072.23,6622.43 8038.68,6247.08 "/>
    <polygon class="fil0 str0" points="12836.89,6254.91 12805.52,6631.04 12200.34,6631.04 12498.04,4533.79 13339.44,4535.2 13676.27,6631.04 13080.87,6631.04 13047.32,6255.7 "/>
    <path class="fil8" d="M3903.87 5883.19l106.86 -877.67 106.88 877.67 -213.75 0zm53.43 -438.83m106.86 0m-53.43 438.83z"/>
    <path class="fil8" d="M7822.75 5875.82l106.86 -877.68 106.89 877.68 -213.76 0zm53.43 -438.84m106.86 0m-53.43 438.84z"/>
    <path class="fil8" d="M12831.39 5884.43l106.86 -877.67 106.88 877.67 -213.75 0zm53.43 -438.84m106.86 0m-53.43 438.84z"/>
    <rect class="fil0" x="15237.33" y="4538.37" width="588.49" height="2091.43"/>
    <polygon class="fil0" points="16556.09,5680.99 16548.75,6629.8 16061.89,6629.8 16061.89,4533.58 16551.19,4531.13 16871.69,5465.7 16876.57,4531.13 17360.99,4533.58 17360.99,6629.8 16854.56,6629.8 "/>
    <polygon class="fil0" points="5336.63,5680.94 5329.29,6629.75 4842.43,6629.75 4842.43,4533.53 5331.73,4531.09 5652.22,5465.65 5657.12,4531.09 6141.52,4533.53 6141.52,6629.75 5635.1,6629.75 "/>
    <path class="fil0 str0" d="M6507.96 6169.43l6.67 -1634.76 584.84 -1.6 -1.6 1690.6 -3.19 69.62 -1.61 54.4 -9.6 47.21 -11.99 36.8 -24.79 48.01 -24.81 32 -33.6 32 -25.61 18.4 -42.39 22.41 -27.21 11.99 -85.61 21.6 -75.21 5.59 -103.2 6.09 -332.84 0c0,-122.84 0,-245.68 0,-368.52 16.55,1.33 33.08,2.66 49.62,4 11.47,0.26 20.73,3.83 32.2,4.09 62.74,-12.26 118.92,-31.64 129.94,-99.94z"/>
    <polygon class="fil0" points="11047.57,4526.77 10294.24,4531.7 10304.09,6629.8 10821.08,6629.8 10806.31,5275.16 11018.03,6629.8 11382.38,6629.8 11579.32,5260.4 11579.32,6629.8 12096.32,6629.8 12091.39,4531.7 11338.06,4526.77 11200.2,5491.81 "/>
    <path class="fil0 str1" d="M9423.98 5688.67l-75.73 -8.03 5.63 949.16 -579.29 0 0 -2083.23 645.51 -5.67 128.04 1.12 88.86 7.3 53.56 6.07 69.39 9.74 64.51 23.12 38.95 21.91 59.64 46.26 43.82 41.38 42.61 60.86 31.66 82.77 25.54 121.73 4.88 136.33 -1.23 139.98 -31.64 147.29 -36.52 59.65 -77.9 52.34 -82.78 30.44c-18.58,0 -56.03,-6.45 -68.96,6.51 -1.85,1.84 -2.59,0.15 -5.29,2.02l109.56 32.87c67.18,49.21 56.86,19.09 113.41,91.08 2.89,3.69 4.97,3.8 4.66,7.52l42.61 46.24 17.03 40.17 8.51 37.73 9.74 289.72 0 546.74 -541.68 0c-0.82,-263.8 -1.62,-527.61 -2.44,-791.4 0.23,-88.23 -33.49,-139.4 -104.67,-149.73z"/>
    <path class="fil1" d="M9518.94 4965.19l9.56 53.74 -2.97 223.82 -5.53 31.3c-5.19,70.47 -68.28,89.27 -164.34,78.7 -0.62,-153.7 -1.24,-307.37 -1.85,-461.06 90.49,-1.73 152.18,17.9 165.12,73.5z"/>
    <path class="fil0" d="M14985.01 4759.9l22.2 162.31 2.83 239.72 -538.66 8.47 -8.46 -253.81 -31.02 -62.05c-18.07,-12.36 -21.25,-14.48 -45.13,-14.1l-50.75 16.92 -50.77 39.48 -11.27 56.41 -2.83 98.71 25.38 95.88 25.38 45.12 129.73 87.43 352.53 225.61 135.37 112.81 53.58 78.96 50.76 163.56 14.11 163.57 -2.83 180.5 -25.38 155.11 -42.29 93.06c-4.37,12.64 -94.63,92.56 -98.72,95.89l-177.66 80.35 -141.02 32.46 -70.5 8.46 -101.52 2.82 -149.48 -5.64 -118.45 -38.09 -146.65 -46.51 -101.53 -73.32 -62.03 -73.33 -33.85 -84.6 -25.38 -81.8 -11.28 -95.88 -5.63 -296.12 535.82 0 16.92 369.44 23.81 53.3 56.08 18.22c5.32,-0.37 45.62,-1.36 49.08,-12.61l47.69 -28.05 26.64 -53.29 7.01 -93.95 -12.62 -121.99 -28.04 -88.34 -100.97 -81.34 -478.16 -321.11 -79.93 -96.76 -46.27 -98.15 -18.23 -64.51 -16.83 -166.87 16.83 -248.19 35.06 -98.16 29.45 -43.47 64.5 -70.13 91.14 -57.49 61.71 -28.04 120.6 -40.67 171.07 -19.63 117.78 0 122 16.84 154.24 39.26 105.17 46.28 85.54 63.09 44.87 50.49 39.27 57.49z"/>
   </g>
  </g>
 </g>
</svg>
